<?xml version="1.0" encoding="UTF-8" standalone="no"?>
<!-- Created with Inkscape (http://www.inkscape.org/) -->

<svg
   xmlns:dc="http://purl.org/dc/elements/1.1/"
   xmlns:cc="http://creativecommons.org/ns#"
   xmlns:rdf="http://www.w3.org/1999/02/22-rdf-syntax-ns#"
   xmlns:svg="http://www.w3.org/2000/svg"
   xmlns="http://www.w3.org/2000/svg"
   xmlns:sodipodi="http://sodipodi.sourceforge.net/DTD/sodipodi-0.dtd"
   xmlns:inkscape="http://www.inkscape.org/namespaces/inkscape"
   width="598.67377mm"
   height="722.72211mm"
   viewBox="0 0 598.67377 722.7221"
   version="1.1"
   id="svg8"
   inkscape:version="0.92.3 (2405546, 2018-03-11)"
   sodipodi:docname="drawing.svg">
  <defs
     id="defs2">
    <clipPath
       clipPathUnits="userSpaceOnUse"
       id="clipPath928">
      <g
         id="g932"
         transform="matrix(1.6735774,0,0,1.6735774,-920.51993,-60.024117)">
        <path
           d="m 161.176,12.744 c -0.862,0.052 -1.68,0.206 -1.817,0.342 -0.136,0.136 -1.401,0.247 -2.81,0.247 h -2.562 v 6.125 c 0,5.096 0.066,6.191 0.392,6.518 0.319,0.319 0.392,1.251 0.392,4.986 v 4.594 h -0.915 c -0.503,0 -0.915,0.117 -0.915,0.261 0,0.144 -0.651,0.261 -1.446,0.261 -1.044,0 -1.488,0.109 -1.597,0.393 -0.092,0.242 -0.49,0.392 -1.037,0.392 -0.488,0 -0.887,0.117 -0.887,0.261 0,0.144 -0.64,0.262 -1.423,0.262 -0.782,0 -1.495,0.117 -1.584,0.261 -0.089,0.144 -0.448,0.261 -0.799,0.261 -0.393,0 -0.639,0.151 -0.639,0.393 0,0.274 -0.276,0.392 -0.915,0.392 -0.503,0 -0.915,0.117 -0.915,0.261 0,0.144 -0.411,0.262 -0.915,0.262 -0.503,0 -0.915,0.117 -0.915,0.261 0,0.144 -0.281,0.262 -0.625,0.262 -0.344,0 -0.694,0.176 -0.776,0.392 -0.223,0.58 -1.734,0.524 -1.744,-0.066 -0.011,-0.565 -0.599,-1.372 -1.001,-1.372 -0.164,0 -0.298,-0.268 -0.298,-0.596 0,-0.328 -0.235,-0.766 -0.523,-0.973 -0.288,-0.207 -0.523,-0.58 -0.523,-0.829 0,-0.249 -0.147,-0.546 -0.327,-0.661 -0.18,-0.115 -0.504,-0.562 -0.719,-0.993 -0.216,-0.432 -0.539,-0.94 -0.719,-1.13 -0.179,-0.19 -0.326,-0.488 -0.326,-0.662 0,-0.173 -0.236,-0.485 -0.523,-0.692 -0.288,-0.207 -0.523,-0.645 -0.523,-0.973 0,-0.355 -0.158,-0.596 -0.392,-0.596 -0.216,0 -0.392,-0.161 -0.392,-0.359 0,-0.505 -1.302,-2.778 -1.591,-2.778 -0.132,0 -0.24,-0.235 -0.24,-0.523 0,-0.287 -0.117,-0.523 -0.261,-0.523 -0.144,0 -0.261,-0.176 -0.261,-0.392 0,-0.216 -0.118,-0.392 -0.262,-0.392 -0.144,0 -0.261,-0.239 -0.261,-0.531 0,-0.292 -0.177,-0.599 -0.392,-0.682 -0.216,-0.082 -0.393,-0.373 -0.393,-0.645 0,-0.272 -0.117,-0.495 -0.261,-0.495 -0.144,0 -0.261,-0.134 -0.261,-0.298 0,-0.402 -0.808,-0.991 -1.373,-1.001 -0.252,-0.004 -0.458,0.109 -0.458,0.253 0,0.144 -0.239,0.262 -0.531,0.262 -0.292,0 -0.598,0.176 -0.681,0.392 -0.083,0.216 -0.373,0.392 -0.646,0.392 -0.272,0 -0.494,0.118 -0.494,0.261 0,0.144 -0.177,0.262 -0.393,0.262 -0.215,0 -0.392,0.117 -0.392,0.261 0,0.144 -0.219,0.262 -0.486,0.262 -0.268,0 -0.707,0.294 -0.977,0.653 -0.27,0.36 -0.757,0.654 -1.083,0.654 -0.325,0 -0.591,0.118 -0.591,0.261 0,0.144 -0.18,0.262 -0.4,0.262 -0.221,0 -0.469,0.176 -0.551,0.392 -0.083,0.216 -0.315,0.392 -0.515,0.392 -0.2,0 -0.364,0.118 -0.364,0.262 0,0.143 -0.215,0.261 -0.477,0.261 -0.263,0 -0.754,0.294 -1.092,0.654 -0.337,0.359 -0.829,0.653 -1.091,0.653 -0.263,0 -0.477,0.118 -0.477,0.262 0,0.143 -0.236,0.261 -0.523,0.261 -0.291,0 -0.523,0.174 -0.523,0.392 0,0.218 -0.233,0.392 -0.523,0.392 -0.288,0 -0.523,0.118 -0.523,0.262 0,0.144 -0.176,0.261 -0.392,0.261 -0.216,0 -0.392,0.118 -0.392,0.262 0,0.143 -0.239,0.261 -0.531,0.261 -0.292,0 -0.599,0.177 -0.682,0.392 -0.083,0.216 -0.314,0.392 -0.515,0.392 -0.2,0 -0.364,0.118 -0.364,0.262 0,0.144 -0.235,0.261 -0.523,0.261 -0.287,0 -0.522,0.118 -0.522,0.262 0,0.144 -0.172,0.261 -0.381,0.261 -0.209,0 -0.674,0.294 -1.034,0.654 -0.359,0.359 -0.843,0.653 -1.076,0.653 -0.232,0 -0.587,0.147 -0.787,0.327 -0.865,0.776 -1.161,0.981 -1.417,0.981 -0.15,0 -0.273,0.117 -0.273,0.261 0,0.144 -0.209,0.261 -0.465,0.261 -1.441,0 -1.695,1.705 -0.45,3.025 0.503,0.534 0.915,1.189 0.915,1.456 0,0.268 0.118,0.487 0.262,0.487 0.143,0 0.261,0.219 0.261,0.486 0,0.267 0.294,0.707 0.654,0.977 0.359,0.27 0.653,0.707 0.653,0.97 0,0.264 0.147,0.644 0.327,0.844 0.776,0.865 0.98,1.161 0.98,1.418 0,0.149 0.118,0.272 0.262,0.272 0.144,0 0.261,0.235 0.261,0.523 0,0.288 0.118,0.523 0.262,0.523 0.144,0 0.261,0.176 0.261,0.392 0,0.216 0.177,0.392 0.392,0.392 0.244,0 0.393,0.247 0.393,0.654 0,0.359 0.117,0.653 0.261,0.653 0.144,0 0.261,0.16 0.261,0.354 0,0.195 0.295,0.672 0.654,1.06 0.359,0.387 0.654,0.875 0.654,1.083 0,0.209 0.117,0.379 0.261,0.379 0.144,0 0.261,0.177 0.261,0.392 0,0.216 0.177,0.392 0.393,0.392 0.215,0 0.392,0.212 0.392,0.471 0,0.584 0.584,1.878 0.849,1.88 0.42,0.005 0.169,1.214 -0.326,1.571 -0.288,0.207 -0.523,0.527 -0.523,0.711 0,0.184 -0.126,0.335 -0.28,0.335 -0.362,0 -1.027,0.665 -1.027,1.027 0,0.154 -0.123,0.28 -0.274,0.28 -0.355,0 -1.556,1.202 -1.556,1.557 0,0.15 -0.123,0.273 -0.274,0.273 -0.355,0 -1.557,1.202 -1.557,1.557 0,0.15 -0.123,0.273 -0.273,0.273 -0.355,0 -1.557,1.202 -1.557,1.557 0,0.15 -0.126,0.273 -0.28,0.273 -0.304,0 -1.027,0.644 -1.027,0.915 0,0.093 -0.147,0.332 -0.327,0.533 -0.692,0.772 -0.98,1.15 -0.98,1.287 0,0.417 -2.08,2.116 -2.202,1.798 -0.074,-0.192 -0.315,-0.35 -0.535,-0.35 -0.22,0 -0.4,-0.117 -0.4,-0.261 0,-0.144 -0.294,-0.262 -0.654,-0.262 -0.359,0 -0.653,-0.117 -0.653,-0.261 0,-0.144 -0.223,-0.262 -0.495,-0.262 -0.273,0 -0.563,-0.176 -0.646,-0.392 -0.082,-0.215 -0.389,-0.392 -0.681,-0.392 -0.292,0 -0.531,-0.118 -0.531,-0.261 0,-0.144 -0.241,-0.262 -0.535,-0.262 -0.294,0 -0.829,-0.294 -1.188,-0.653 -0.36,-0.36 -0.889,-0.654 -1.176,-0.654 -0.288,0 -0.84,-0.294 -1.228,-0.654 -0.387,-0.359 -0.853,-0.653 -1.034,-0.653 -0.181,0 -0.33,-0.118 -0.33,-0.262 0,-0.143 -0.294,-0.261 -0.653,-0.261 -0.36,0 -0.654,-0.118 -0.654,-0.261 0,-0.144 -0.294,-0.262 -0.653,-0.262 -0.407,0 -0.654,-0.148 -0.654,-0.392 0,-0.218 -0.232,-0.392 -0.523,-0.392 -0.287,0 -0.523,-0.118 -0.523,-0.262 0,-0.143 -0.176,-0.261 -0.392,-0.261 -0.216,0 -0.392,-0.118 -0.392,-0.262 0,-0.143 -0.282,-0.261 -0.626,-0.261 -0.344,0 -0.693,-0.176 -0.776,-0.392 -0.082,-0.216 -0.33,-0.392 -0.551,-0.392 -0.22,0 -0.4,-0.124 -0.4,-0.275 0,-0.624 -2.999,-0.167 -3.09,0.471 -0.046,0.323 -0.193,0.588 -0.327,0.588 -0.134,0 -0.243,0.223 -0.243,0.495 0,0.272 -0.177,0.563 -0.392,0.645 -0.216,0.083 -0.392,0.39 -0.392,0.682 0,0.292 -0.118,0.531 -0.262,0.531 -0.144,0 -0.261,0.178 -0.261,0.396 0,0.55 -0.463,1.349 -1.504,2.59 -0.179,0.215 -0.326,0.631 -0.326,0.925 0,0.293 -0.118,0.533 -0.262,0.533 -0.144,0 -0.261,0.223 -0.261,0.495 0,0.273 -0.177,0.563 -0.392,0.646 -0.216,0.082 -0.393,0.389 -0.393,0.681 0,0.292 -0.117,0.531 -0.261,0.531 -0.144,0 -0.261,0.294 -0.261,0.654 0,0.359 -0.113,0.654 -0.25,0.654 -0.137,0 -0.444,0.411 -0.683,0.915 -0.239,0.503 -0.538,0.915 -0.666,0.915 -0.127,0 -0.231,0.294 -0.231,0.653 0,0.36 -0.089,0.655 -0.197,0.655 -0.263,0.003 -1.111,1.514 -1.111,1.981 0,0.204 -0.117,0.371 -0.261,0.371 -0.144,0 -0.262,0.294 -0.262,0.653 0,0.36 -0.147,0.654 -0.328,0.654 -0.18,0 -0.475,0.353 -0.653,0.784 -0.179,0.432 -0.472,1.138 -0.651,1.569 -0.179,0.431 -0.406,0.784 -0.504,0.784 -0.23,0 -1.001,1.541 -1.001,2.001 0,0.194 -0.117,0.352 -0.261,0.352 -0.624,0 -0.27,1.557 0.392,1.723 0.359,0.09 0.654,0.269 0.654,0.397 0,0.128 0.235,0.233 0.522,0.233 0.291,0 0.523,0.174 0.523,0.392 0,0.244 0.247,0.392 0.654,0.392 0.359,0 0.653,0.118 0.653,0.262 0,0.144 0.236,0.261 0.523,0.261 0.288,0 0.523,0.118 0.523,0.262 0,0.143 0.294,0.261 0.654,0.261 0.359,0 0.653,0.148 0.653,0.328 0,0.181 0.383,0.495 0.85,0.698 0.467,0.204 0.909,0.438 0.981,0.522 0.254,0.295 1.877,1.067 2.243,1.067 0.204,0 0.371,0.117 0.371,0.261 0,0.144 0.223,0.261 0.495,0.261 0.272,0 0.562,0.177 0.645,0.393 0.083,0.215 0.39,0.392 0.682,0.392 0.292,0 0.532,0.088 0.533,0.196 0.002,0.205 1.244,0.849 1.637,0.849 0.126,0 0.392,0.148 0.593,0.327 0.93,0.835 1.18,0.981 1.678,0.981 0.294,0 0.534,0.117 0.534,0.261 0,0.144 0.177,0.262 0.392,0.262 1.066,0 1.825,1.706 1.046,2.352 -0.216,0.179 -0.392,0.658 -0.392,1.063 0,0.405 -0.118,0.809 -0.261,0.898 -0.144,0.089 -0.262,0.56 -0.262,1.046 0,0.486 -0.118,0.957 -0.261,1.046 -0.144,0.089 -0.262,0.684 -0.262,1.322 0,0.858 -0.102,1.161 -0.392,1.161 -0.305,0 -0.392,0.349 -0.392,1.569 0,0.871 -0.116,1.569 -0.261,1.569 -0.144,0 -0.262,0.647 -0.262,1.438 0,0.79 -0.118,1.437 -0.261,1.437 -0.149,0 -0.262,0.774 -0.262,1.799 v 1.798 l -4.771,0.133 c -2.624,0.074 -5.182,0.265 -5.685,0.425 -0.548,0.174 -3.084,0.29 -6.339,0.29 h -5.427 v 12.81 c 0,8.366 0.091,12.811 0.261,12.811 0.152,0 0.262,0.835 0.262,1.983 v 1.983 l 5.686,-0.158 c 3.128,-0.087 8.128,-0.223 11.111,-0.303 l 5.425,-0.144 v 0.787 c 0,0.434 0.118,0.861 0.262,0.95 0.143,0.089 0.261,0.779 0.261,1.534 0,0.802 0.159,1.583 0.384,1.88 0.211,0.279 0.387,0.89 0.392,1.357 0.005,0.467 0.126,0.85 0.27,0.85 0.143,0 0.261,0.463 0.261,1.03 0,0.567 0.118,1.103 0.262,1.192 0.143,0.089 0.261,0.44 0.261,0.781 0,0.341 0.176,0.796 0.392,1.012 0.216,0.215 0.392,0.629 0.392,0.918 0,0.289 0.118,0.599 0.262,0.688 0.144,0.089 0.261,0.625 0.261,1.192 0,0.566 0.105,1.03 0.233,1.03 0.128,0 0.307,0.294 0.397,0.654 0.091,0.359 0.28,0.653 0.421,0.653 0.141,0 0.256,0.235 0.256,0.523 0,0.614 -0.875,1.569 -1.438,1.569 -0.215,0 -0.392,0.117 -0.392,0.261 0,0.144 -0.243,0.262 -0.541,0.262 -0.579,0 -1.289,0.565 -1.289,1.027 0,0.154 -0.294,0.28 -0.653,0.28 -0.36,0 -0.654,0.095 -0.654,0.212 0,0.117 -0.412,0.375 -0.915,0.572 -0.503,0.197 -0.915,0.514 -0.915,0.702 0,0.189 -0.268,0.344 -0.596,0.344 -0.328,0 -0.765,0.235 -0.973,0.523 -0.207,0.287 -0.59,0.523 -0.85,0.523 -0.26,0 -0.541,0.176 -0.624,0.392 -0.082,0.215 -0.373,0.392 -0.645,0.392 -0.272,0 -0.495,0.117 -0.495,0.261 0,0.144 -0.176,0.262 -0.392,0.262 -0.216,0 -0.392,0.115 -0.392,0.256 0,0.141 -0.294,0.33 -0.654,0.421 -0.359,0.09 -0.654,0.269 -0.654,0.397 0,0.128 -0.235,0.233 -0.522,0.233 -0.288,0 -0.523,0.118 -0.523,0.261 0,0.144 -0.177,0.262 -0.392,0.262 -0.216,0 -0.393,0.176 -0.393,0.392 0,0.216 -0.172,0.392 -0.384,0.392 -0.963,0 -3.276,1.709 -3.276,2.421 0,0.609 0.64,1.758 0.981,1.76 0.179,10e-4 0.326,0.27 0.326,0.598 0,0.328 0.236,0.765 0.523,0.973 0.288,0.207 0.523,0.59 0.523,0.85 0,0.26 0.177,0.541 0.392,0.624 0.216,0.083 0.393,0.373 0.393,0.645 0,0.272 0.117,0.495 0.261,0.495 0.144,0 0.261,0.177 0.261,0.392 0,0.216 0.11,0.392 0.244,0.392 0.134,0 0.328,0.265 0.43,0.589 0.102,0.323 0.404,0.778 0.671,1.011 0.267,0.232 0.485,0.661 0.485,0.952 0,0.291 0.177,0.597 0.393,0.68 0.215,0.083 0.392,0.331 0.392,0.551 0,0.22 0.117,0.4 0.261,0.4 0.144,0 0.262,0.177 0.262,0.393 0,0.215 0.117,0.392 0.261,0.392 0.144,0 0.262,0.239 0.262,0.531 0,0.292 0.176,0.599 0.392,0.681 0.215,0.083 0.392,0.374 0.392,0.646 0,0.272 0.118,0.495 0.261,0.495 0.144,0 0.262,0.176 0.262,0.392 0,0.216 0.117,0.392 0.261,0.392 0.144,0 0.262,0.18 0.262,0.4 0,0.221 0.176,0.468 0.392,0.551 0.215,0.083 0.392,0.389 0.392,0.68 0,0.292 0.218,0.72 0.485,0.953 0.267,0.232 0.569,0.687 0.672,1.011 0.102,0.323 0.273,0.588 0.38,0.588 0.108,0 0.357,0.412 0.554,0.915 0.198,0.503 0.514,0.915 0.703,0.915 0.189,0 0.343,0.268 0.343,0.596 0,0.328 0.235,0.765 0.523,0.973 0.288,0.207 0.523,0.645 0.523,0.972 0,0.356 0.158,0.596 0.392,0.596 0.216,0 0.392,0.118 0.392,0.262 0,0.144 0.236,0.261 0.523,0.261 0.288,0 0.523,-0.117 0.523,-0.261 0,-0.144 0.244,-0.262 0.542,-0.262 0.578,0 1.288,-0.565 1.288,-1.027 0,-0.154 0.294,-0.28 0.654,-0.28 0.359,0 0.653,-0.118 0.653,-0.261 0,-0.144 0.206,-0.265 0.458,-0.27 0.565,-0.01 1.372,-0.599 1.372,-1.001 0,-0.164 0.294,-0.298 0.654,-0.298 0.359,0 0.654,-0.096 0.654,-0.213 0,-0.117 0.411,-0.409 0.915,-0.649 0.503,-0.24 0.915,-0.556 0.915,-0.702 0,-0.146 0.243,-0.266 0.541,-0.266 0.579,0 1.289,-0.566 1.289,-1.027 0,-0.154 0.294,-0.28 0.653,-0.28 0.407,0 0.654,0.148 0.654,0.392 0,0.216 -0.112,0.392 -0.25,0.392 -0.137,0 -0.327,0.412 -0.421,0.915 -0.094,0.503 -0.276,0.915 -0.404,0.915 -0.128,0 -0.232,0.294 -0.232,0.654 0,0.359 -0.118,0.653 -0.262,0.653 -0.144,0 -0.261,0.223 -0.261,0.495 0,0.272 -0.177,0.563 -0.392,0.646 -0.216,0.082 -0.393,0.332 -0.393,0.554 0,0.222 -0.117,0.638 -0.261,0.923 -0.144,0.286 -0.379,0.753 -0.523,1.039 -0.144,0.286 -0.261,0.647 -0.261,0.803 0,0.156 -0.177,0.46 -0.392,0.676 -0.216,0.215 -0.393,0.678 -0.393,1.027 0,0.349 -0.088,0.636 -0.196,0.637 -0.279,0.003 -0.849,1.309 -0.849,1.948 0,0.296 -0.294,0.856 -0.654,1.244 -0.359,0.387 -0.654,0.945 -0.654,1.239 0,0.294 -0.117,0.534 -0.261,0.534 -0.144,0 -0.261,0.412 -0.261,0.915 0,0.639 -0.119,0.915 -0.393,0.915 -0.217,0 -0.392,0.233 -0.392,0.523 0,0.288 -0.117,0.523 -0.261,0.523 -0.144,0 -0.262,0.284 -0.262,0.632 0,0.347 -0.088,0.671 -0.196,0.719 -0.361,0.16 -1.111,1.821 -1.111,2.461 0,0.348 -0.117,0.632 -0.261,0.632 -0.144,0 -0.262,0.294 -0.262,0.654 0,0.407 -0.148,0.654 -0.392,0.654 -0.218,0 -0.392,0.232 -0.392,0.522 0,0.288 -0.118,0.523 -0.261,0.523 -0.144,0 -0.262,0.294 -0.262,0.654 0,0.359 -0.118,0.653 -0.261,0.653 -0.144,0 -0.262,0.282 -0.262,0.626 0,0.344 -0.176,0.693 -0.392,0.776 -0.229,0.088 -0.392,0.48 -0.392,0.943 0,0.436 -0.118,0.793 -0.261,0.793 -0.144,0 -0.262,0.411 -0.262,0.915 0,0.503 0.118,0.915 0.262,0.915 0.143,0 0.261,0.18 0.261,0.4 0,0.22 0.176,0.468 0.392,0.551 0.216,0.083 0.392,0.314 0.392,0.515 0,0.2 0.118,0.364 0.262,0.364 0.143,0 0.261,0.235 0.261,0.523 0,0.287 0.118,0.523 0.262,0.523 0.143,0 0.261,0.176 0.261,0.392 0,0.215 0.176,0.392 0.392,0.392 0.216,0 0.392,0.206 0.393,0.457 0,0.252 0.294,0.8 0.653,1.218 0.36,0.417 0.654,0.917 0.654,1.111 0,0.193 0.104,0.351 0.231,0.351 0.128,0 0.414,0.383 0.637,0.85 0.223,0.467 0.649,1.023 0.945,1.234 0.297,0.212 0.539,0.602 0.539,0.868 0,0.595 0.603,1.231 1.166,1.231 0.231,0 0.487,0.177 0.57,0.392 0.105,0.275 0.534,0.392 1.43,0.392 0.703,0 1.279,0.118 1.279,0.262 0,0.149 0.779,0.261 1.815,0.261 0.998,0 1.887,0.118 1.976,0.262 0.089,0.144 0.779,0.261 1.534,0.261 0.802,0 1.583,0.16 1.88,0.384 0.279,0.211 1.059,0.388 1.734,0.392 0.674,0.005 1.299,0.126 1.388,0.27 0.089,0.144 0.377,0.261 0.641,0.261 0.263,0 0.547,0.177 0.63,0.393 0.082,0.215 0.389,0.392 0.681,0.392 0.292,0 0.531,0.117 0.531,0.261 0,0.144 0.288,0.262 0.639,0.262 0.351,0 0.71,0.117 0.799,0.261 0.089,0.144 0.508,0.261 0.931,0.261 0.509,0 0.769,0.133 0.769,0.393 0,0.244 0.247,0.392 0.653,0.392 0.36,0 0.654,0.117 0.654,0.261 0,0.144 0.235,0.262 0.523,0.262 0.287,0 0.523,0.117 0.523,0.261 0,0.144 0.294,0.262 0.653,0.262 0.407,0 0.654,0.148 0.654,0.392 0,0.304 0.347,0.392 1.553,0.392 0.854,0 1.626,0.118 1.715,0.261 0.089,0.144 1.089,0.262 2.222,0.262 1.133,0 2.133,0.117 2.222,0.261 0.096,0.155 1.692,0.262 3.905,0.262 3.009,0 3.807,0.077 4.069,0.392 0.187,0.225 0.757,0.392 1.339,0.392 0.558,0 1.014,0.118 1.014,0.261 0,0.144 0.168,0.262 0.373,0.262 0.206,0 0.811,0.412 1.344,0.915 0.534,0.503 1.189,0.915 1.457,0.915 0.267,0 0.486,0.126 0.486,0.28 0,0.443 0.701,1.027 1.231,1.027 0.266,0 0.657,0.243 0.868,0.539 0.212,0.297 0.767,0.722 1.234,0.945 0.468,0.223 0.85,0.51 0.85,0.637 0,0.128 0.294,0.232 0.654,0.232 0.359,0 0.653,0.126 0.653,0.28 0,0.305 0.644,1.027 0.915,1.027 0.093,0 0.332,0.147 0.533,0.327 0.785,0.704 1.151,0.98 1.298,0.98 0.085,0 0.448,0.295 0.807,0.654 0.36,0.359 0.799,0.654 0.977,0.654 0.177,0 0.492,0.235 0.699,0.522 0.207,0.288 0.653,0.523 0.991,0.523 0.547,0 0.571,0.044 0.223,0.392 -0.216,0.216 -0.465,0.393 -0.554,0.393 -0.278,0 -2.751,2.574 -2.751,2.863 0,0.151 -0.228,0.274 -0.506,0.274 -0.278,0 -1.163,0.647 -1.967,1.438 -0.803,0.791 -1.576,1.438 -1.716,1.438 -0.141,0 -0.256,0.126 -0.256,0.28 0,0.364 -0.526,0.877 -1.136,1.108 -0.265,0.101 -0.544,0.418 -0.619,0.705 -0.075,0.288 -0.356,0.521 -0.628,0.521 -0.271,0 -0.493,0.118 -0.493,0.262 0,0.143 -0.176,0.261 -0.392,0.261 -0.216,0 -0.392,0.176 -0.392,0.392 0,0.244 -0.247,0.392 -0.654,0.392 -0.359,0 -0.653,0.118 -0.653,0.262 0,0.144 -0.236,0.261 -0.523,0.261 -0.288,0 -0.523,0.118 -0.523,0.262 0,0.143 -0.164,0.261 -0.364,0.261 -0.2,0 -0.432,0.177 -0.515,0.392 -0.083,0.216 -0.307,0.392 -0.499,0.392 -0.487,0 -1.755,0.613 -1.757,0.85 -10e-4,0.108 -0.296,0.196 -0.656,0.196 -0.407,0 -0.653,0.148 -0.653,0.392 0,0.244 -0.247,0.392 -0.654,0.392 -0.359,0 -0.654,0.118 -0.654,0.262 0,0.144 -0.192,0.261 -0.427,0.261 -0.235,0 -0.7,0.294 -1.033,0.654 -0.334,0.359 -0.781,0.653 -0.995,0.653 -0.214,0 -0.462,0.118 -0.551,0.262 -0.089,0.144 -0.39,0.261 -0.669,0.261 -0.279,0 -0.508,0.116 -0.508,0.257 0,0.141 -0.294,0.33 -0.653,0.42 -0.36,0.091 -0.654,0.269 -0.654,0.397 0,0.129 -0.158,0.234 -0.352,0.234 -0.476,0 -2.001,0.774 -2.001,1.016 0,0.106 -0.412,0.355 -0.915,0.552 -0.503,0.198 -0.915,0.455 -0.915,0.572 0,0.117 -0.294,0.212 -0.653,0.212 -0.407,0 -0.654,0.149 -0.654,0.393 0,0.244 -0.247,0.392 -0.654,0.392 -0.359,0 -0.653,0.117 -0.653,0.261 0,0.144 -0.235,0.262 -0.523,0.262 -0.288,0 -0.523,0.105 -0.523,0.233 0,0.128 -0.294,0.307 -0.654,0.397 -0.359,0.09 -0.653,0.279 -0.653,0.42 0,0.141 -0.177,0.257 -0.392,0.257 -0.216,0 -0.392,0.118 -0.392,0.261 0,0.144 -0.236,0.262 -0.523,0.262 -0.288,0 -0.523,0.117 -0.523,0.261 0,0.144 -0.239,0.262 -0.531,0.262 -0.292,0 -0.599,0.176 -0.682,0.392 -0.083,0.215 -0.344,0.396 -0.58,0.4 -1.852,0.036 -1.594,4.175 0.26,4.175 0.124,0 0.226,0.126 0.226,0.28 0,0.305 0.643,1.027 0.915,1.027 0.271,0 0.915,0.723 0.915,1.027 0,0.154 0.117,0.28 0.261,0.28 0.144,0 0.262,0.18 0.262,0.401 0,0.22 0.176,0.468 0.392,0.551 0.215,0.082 0.392,0.262 0.392,0.4 0,0.137 0.823,1.066 1.83,2.065 1.006,0.999 1.83,1.886 1.83,1.973 0,0.15 0.476,0.709 1.765,2.07 0.323,0.342 0.588,0.744 0.588,0.894 0,0.151 0.133,0.274 0.296,0.274 0.313,0 1.533,1.3 1.534,1.634 0,0.108 0.126,0.196 0.28,0.196 0.409,0 1.027,0.685 1.027,1.139 0,0.215 0.294,0.623 0.654,0.906 0.359,0.282 0.653,0.601 0.653,0.707 0,0.237 1.363,1.43 1.634,1.431 0.108,0 0.196,0.126 0.196,0.28 0,0.362 0.666,1.027 1.028,1.027 0.154,0 0.28,0.177 0.28,0.392 0,0.216 0.117,0.392 0.261,0.392 0.144,0 0.262,0.216 0.262,0.479 0,0.263 0.294,0.636 0.653,0.829 0.36,0.192 0.654,0.457 0.654,0.589 0,0.132 0.62,0.848 1.378,1.59 0.758,0.742 1.727,1.821 2.154,2.396 0.427,0.575 1.159,1.44 1.628,1.921 0.469,0.482 0.853,0.982 0.853,1.111 0,0.13 0.126,0.236 0.28,0.236 0.293,0 1.027,0.639 1.027,0.894 0,0.141 0.816,1.154 1.503,1.867 0.18,0.186 0.327,0.445 0.327,0.575 0,0.129 0.294,0.393 0.654,0.585 1.101,0.589 0.815,1.046 -0.654,1.046 -0.719,0 -1.307,0.118 -1.307,0.261 0,0.144 -0.566,0.262 -1.257,0.262 -0.701,0 -1.482,0.17 -1.765,0.384 -0.286,0.216 -1.084,0.387 -1.828,0.392 -0.726,0.004 -1.432,0.114 -1.568,0.243 -0.263,0.248 -1.62,0.484 -4.122,0.717 -0.962,0.09 -1.573,0.278 -1.662,0.51 -0.098,0.254 -0.581,0.368 -1.552,0.368 -0.775,0 -1.41,0.111 -1.41,0.246 0,0.135 -1.323,0.307 -2.941,0.382 -6.897,0.32 -9.592,0.558 -9.909,0.876 -0.228,0.228 -1.367,0.326 -3.788,0.326 -2.026,0 -3.528,0.109 -3.623,0.262 -0.095,0.154 -1.653,0.261 -3.791,0.261 -1.996,0 -3.691,0.1 -3.767,0.223 -0.075,0.122 -1.569,0.288 -3.319,0.369 -1.778,0.082 -3.256,0.268 -3.351,0.421 -0.096,0.155 -1.359,0.308 -2.906,0.35 l -2.735,0.075 -0.082,0.85 c -0.046,0.477 0.04,0.849 0.196,0.849 0.191,0 0.281,3.078 0.287,9.87 0.009,10.596 0.066,11.045 1.405,11.045 0.229,0 0.416,0.194 0.416,0.431 0,0.237 1.118,1.529 2.484,2.871 1.366,1.341 2.483,2.559 2.483,2.706 0,0.147 0.123,0.267 0.274,0.267 0.354,0 1.556,1.202 1.556,1.557 0,0.15 0.126,0.273 0.28,0.273 0.305,0 1.028,0.644 1.028,0.915 0,0.218 0.696,0.915 0.915,0.915 0.218,0 0.915,0.697 0.915,0.915 0,0.218 0.696,0.915 0.915,0.915 0.251,0 0.915,0.713 0.915,0.983 0,0.13 0.284,0.388 0.631,0.574 0.348,0.186 0.692,0.567 0.765,0.848 0.073,0.28 0.377,0.574 0.676,0.652 0.298,0.078 0.542,0.275 0.542,0.438 0,0.163 0.824,1.17 1.83,2.238 1.007,1.068 1.83,1.989 1.83,2.045 0,0.169 0.734,0.85 0.915,0.85 0.218,0 0.915,0.697 0.915,0.915 0,0.271 0.723,0.915 1.027,0.915 0.154,0 0.281,0.088 0.281,0.196 0,0.334 1.22,1.634 1.533,1.634 0.163,0 0.296,0.123 0.296,0.273 0,0.355 1.202,1.557 1.557,1.557 0.151,0 0.274,0.123 0.274,0.273 0,0.355 1.201,1.557 1.556,1.557 0.151,0 0.274,0.126 0.274,0.28 0,0.362 0.665,1.027 1.027,1.027 0.154,0 0.28,0.123 0.28,0.273 0,0.355 1.202,1.557 1.557,1.557 0.15,0 0.273,0.246 0.273,0.548 0,0.327 0.21,0.602 0.523,0.684 0.287,0.075 0.523,0.222 0.523,0.327 0,0.105 0.241,0.469 0.535,0.809 0.536,0.617 0.536,0.618 0.01,0.812 -0.289,0.107 -0.676,0.436 -0.86,0.73 -0.184,0.294 -0.572,0.535 -0.863,0.535 -0.29,0 -0.749,0.294 -1.019,0.653 -0.27,0.36 -0.71,0.654 -0.977,0.654 -0.268,0 -0.487,0.095 -0.487,0.212 0,0.117 -0.411,0.375 -0.915,0.572 -0.503,0.198 -0.915,0.514 -0.915,0.702 0,0.189 -0.235,0.344 -0.522,0.344 -0.288,0 -0.523,0.117 -0.523,0.261 0,0.144 -0.177,0.262 -0.392,0.262 -0.216,0 -0.393,0.091 -0.393,0.202 0,0.111 -0.411,0.423 -0.915,0.694 -0.503,0.272 -0.915,0.592 -0.915,0.714 0,0.121 -0.206,0.224 -0.457,0.228 -0.565,0.01 -1.373,0.599 -1.373,1.001 0,0.164 -0.243,0.298 -0.541,0.298 -0.579,0 -1.289,0.566 -1.289,1.027 0,0.154 -0.268,0.28 -0.596,0.28 -0.327,0 -0.765,0.235 -0.972,0.523 -0.208,0.288 -0.645,0.523 -0.973,0.523 -0.356,0 -0.596,0.158 -0.596,0.392 0,0.216 -0.213,0.392 -0.474,0.392 -0.26,0 -0.726,0.236 -1.034,0.523 -0.309,0.288 -0.727,0.523 -0.928,0.523 -0.202,0 -0.588,0.294 -0.858,0.654 -0.269,0.359 -0.706,0.653 -0.97,0.653 -0.527,0 -1.226,0.586 -1.226,1.027 0,0.154 -0.241,0.28 -0.535,0.28 -0.294,0 -0.829,0.294 -1.188,0.654 -0.36,0.359 -0.825,0.654 -1.034,0.654 -0.209,0 -0.381,0.095 -0.381,0.212 0,0.117 -0.411,0.374 -0.915,0.572 -0.503,0.197 -0.915,0.513 -0.915,0.702 0,0.189 -0.268,0.344 -0.595,0.344 -0.328,0 -0.766,0.235 -0.973,0.522 -0.208,0.288 -0.57,0.523 -0.806,0.523 -0.235,0 -0.649,0.294 -0.919,0.654 -0.27,0.359 -0.707,0.654 -0.97,0.654 -0.527,0 -1.227,0.586 -1.227,1.027 0,0.154 -0.294,0.28 -0.653,0.28 -0.36,0 -0.654,0.117 -0.654,0.261 0,0.144 -0.159,0.262 -0.354,0.262 -0.195,0 -0.671,0.294 -1.059,0.653 -0.388,0.36 -0.846,0.658 -1.019,0.662 -0.447,0.012 -1.228,0.649 -1.228,1.001 0,0.164 -0.213,0.298 -0.474,0.298 -0.26,0 -0.726,0.235 -1.035,0.523 -0.308,0.287 -0.665,0.523 -0.792,0.523 -0.128,0 -0.574,0.294 -0.992,0.653 -0.418,0.359 -0.922,0.653 -1.122,0.654 -0.199,0 -0.634,0.294 -0.968,0.654 -0.333,0.359 -0.787,0.653 -1.01,0.653 -0.222,0 -0.405,0.118 -0.405,0.262 0,0.143 -0.176,0.261 -0.392,0.261 -0.215,0 -0.392,0.118 -0.392,0.261 0,0.144 -0.18,0.262 -0.4,0.262 -0.22,0 -0.468,0.176 -0.551,0.392 -0.083,0.216 -0.314,0.392 -0.515,0.392 -0.2,0 -0.364,0.118 -0.364,0.262 0,0.143 -0.235,0.261 -0.523,0.261 -0.29,0 -0.523,0.174 -0.523,0.392 0,0.244 -0.247,0.392 -0.653,0.392 -0.36,0 -0.654,0.105 -0.654,0.232 0,0.127 -0.412,0.427 -0.915,0.666 -0.585,0.278 -0.915,0.618 -0.915,0.945 0,0.281 -0.154,0.51 -0.343,0.51 -0.189,0 -0.505,0.412 -0.703,0.915 -0.197,0.504 -0.454,0.915 -0.571,0.915 -0.117,0 -0.213,0.219 -0.213,0.487 0,0.267 -0.294,0.707 -0.654,0.977 -0.359,0.27 -0.653,0.68 -0.653,0.911 0,0.232 -0.412,0.845 -0.915,1.363 -0.503,0.518 -0.915,1.125 -0.915,1.347 0,0.223 -0.11,0.406 -0.244,0.406 -0.134,0 -0.325,0.255 -0.424,0.568 -0.099,0.312 -0.401,0.805 -0.671,1.095 -0.27,0.29 -0.491,0.74 -0.491,1 0,0.261 -0.177,0.474 -0.392,0.474 -0.216,0 -0.393,0.176 -0.393,0.392 0,0.216 -0.117,0.392 -0.261,0.392 -0.144,0 -0.261,0.235 -0.261,0.523 0,0.288 -0.118,0.523 -0.262,0.523 -0.144,0 -0.261,0.176 -0.261,0.392 0,0.216 -0.177,0.392 -0.393,0.392 -0.217,0 -0.392,0.233 -0.392,0.523 0,0.288 -0.117,0.523 -0.261,0.523 -0.144,0 -0.262,0.176 -0.262,0.392 0,0.216 -0.117,0.392 -0.261,0.392 -0.144,0 -0.261,0.182 -0.261,0.405 0,0.222 -0.295,0.677 -0.654,1.01 -0.359,0.333 -0.654,0.784 -0.654,1.002 0,0.217 -0.176,0.542 -0.392,0.721 -0.215,0.179 -0.392,0.487 -0.392,0.685 0,0.198 -0.118,0.36 -0.261,0.36 -0.144,0 -0.262,0.177 -0.262,0.392 0,0.216 -0.117,0.393 -0.261,0.393 -0.144,0 -0.262,0.18 -0.262,0.4 0,0.22 -0.176,0.468 -0.392,0.551 -0.216,0.083 -0.392,0.314 -0.392,0.514 0,0.201 -0.096,0.365 -0.213,0.365 -0.117,0 -0.374,0.411 -0.571,0.915 -0.198,0.503 -0.492,0.915 -0.654,0.915 -0.162,0 -0.456,0.412 -0.653,0.915 -0.198,0.503 -0.455,0.915 -0.572,0.915 -0.117,0 -0.213,0.294 -0.213,0.653 0,0.36 -0.126,0.654 -0.28,0.654 -0.406,0 -1.027,0.684 -1.027,1.13 0,0.211 -0.292,0.661 -0.649,0.999 -0.357,0.339 -0.651,0.822 -0.654,1.074 -0.002,0.251 -0.122,0.457 -0.266,0.457 -0.143,0 -0.261,0.177 -0.261,0.392 0,0.348 20.048,0.392 178.861,0.392 h 178.86 l -0.165,-1.585 c -0.091,-0.871 -0.314,-1.75 -0.495,-1.951 -0.777,-0.866 -0.983,-1.163 -0.983,-1.42 0,-0.15 -0.117,-0.272 -0.261,-0.272 -0.144,0 -0.262,-0.236 -0.262,-0.523 0,-0.288 -0.104,-0.523 -0.233,-0.523 -0.128,0 -0.307,-0.294 -0.397,-0.654 -0.09,-0.359 -0.279,-0.653 -0.42,-0.653 -0.141,0 -0.257,-0.177 -0.257,-0.392 0,-0.216 -0.117,-0.393 -0.261,-0.393 -0.144,0 -0.262,-0.235 -0.262,-0.522 0,-0.291 -0.174,-0.523 -0.392,-0.523 -0.215,0 -0.392,-0.144 -0.392,-0.319 0,-0.556 -1.164,-2.809 -1.454,-2.814 -0.153,-0.002 -0.44,-0.416 -0.637,-0.92 -0.198,-0.503 -0.455,-0.915 -0.572,-0.915 -0.117,0 -0.213,-0.171 -0.213,-0.38 0,-0.209 -0.294,-0.674 -0.653,-1.034 -0.36,-0.359 -0.654,-0.894 -0.654,-1.188 0,-0.294 -0.11,-0.535 -0.244,-0.535 -0.134,0 -0.327,-0.265 -0.429,-0.588 -0.102,-0.324 -0.404,-0.779 -0.671,-1.011 -0.267,-0.233 -0.486,-0.674 -0.486,-0.981 0,-0.321 -0.166,-0.557 -0.392,-0.557 -0.216,0 -0.392,-0.213 -0.392,-0.474 0,-0.26 -0.236,-0.726 -0.523,-1.035 -0.288,-0.308 -0.523,-0.746 -0.523,-0.972 0,-0.226 -0.176,-0.479 -0.392,-0.562 -0.216,-0.083 -0.392,-0.373 -0.392,-0.645 0,-0.272 -0.118,-0.495 -0.262,-0.495 -0.144,0 -0.261,-0.177 -0.261,-0.392 0,-0.216 -0.118,-0.392 -0.262,-0.392 -0.143,0 -0.261,-0.236 -0.261,-0.523 0,-0.291 -0.174,-0.523 -0.392,-0.523 -0.216,0 -0.392,-0.177 -0.392,-0.392 0,-0.218 -0.233,-0.393 -0.523,-0.393 -0.288,0 -0.523,-0.117 -0.523,-0.261 0,-0.144 -0.164,-0.261 -0.364,-0.261 -0.201,0 -0.432,-0.177 -0.515,-0.393 -0.083,-0.215 -0.364,-0.392 -0.624,-0.392 -0.26,0 -0.643,-0.235 -0.85,-0.523 -0.207,-0.287 -0.645,-0.522 -0.973,-0.522 -0.328,0 -0.596,-0.127 -0.596,-0.281 0,-0.423 -0.691,-1.027 -1.176,-1.027 -0.485,0 -1.177,-0.603 -1.177,-1.027 0,-0.154 -0.268,-0.28 -0.596,-0.28 -0.327,0 -0.765,-0.235 -0.972,-0.523 -0.208,-0.287 -0.477,-0.523 -0.6,-0.523 -0.122,0 -0.386,-0.147 -0.586,-0.326 -0.792,-0.71 -1.152,-0.981 -1.306,-0.981 -0.088,0 -0.324,-0.147 -0.524,-0.327 -0.866,-0.775 -1.161,-0.98 -1.418,-0.98 -0.15,0 -0.272,-0.118 -0.272,-0.261 0,-0.144 -0.171,-0.262 -0.379,-0.262 -0.208,0 -0.696,-0.294 -1.084,-0.653 -0.388,-0.36 -0.864,-0.654 -1.059,-0.654 -0.195,0 -0.354,-0.104 -0.354,-0.231 0,-0.127 -0.206,-0.3 -0.458,-0.385 -0.628,-0.211 -1.412,-0.733 -1.922,-1.279 -0.234,-0.252 -0.677,-0.458 -0.984,-0.458 -0.307,0 -0.558,-0.126 -0.558,-0.28 0,-0.461 -0.709,-1.027 -1.288,-1.027 -0.298,0 -0.542,-0.126 -0.542,-0.28 0,-0.441 -0.699,-1.027 -1.226,-1.027 -0.264,0 -0.7,-0.294 -0.97,-0.654 -0.27,-0.359 -0.684,-0.654 -0.92,-0.654 -0.235,0 -0.598,-0.235 -0.805,-0.522 -0.207,-0.288 -0.645,-0.523 -0.973,-0.523 -0.328,0 -0.596,-0.126 -0.596,-0.28 0,-0.391 -0.677,-1.027 -1.092,-1.028 -0.19,0 -0.808,-0.412 -1.374,-0.915 -0.565,-0.503 -1.188,-0.915 -1.384,-0.915 -0.196,0 -0.651,-0.294 -1.01,-0.653 -0.36,-0.36 -0.774,-0.654 -0.922,-0.654 -0.451,0 -1.015,-0.716 -1.015,-1.288 0,-0.298 -0.118,-0.542 -0.262,-0.542 -0.143,0 -0.261,-0.28 -0.261,-0.621 0,-0.342 -0.177,-0.768 -0.392,-0.947 -0.216,-0.179 -0.392,-0.54 -0.392,-0.801 0,-0.262 -0.118,-0.548 -0.262,-0.637 -0.144,-0.089 -0.261,-0.39 -0.261,-0.669 0,-0.279 -0.118,-0.508 -0.262,-0.508 -0.143,0 -0.261,-0.239 -0.261,-0.531 0,-0.292 -0.177,-0.599 -0.392,-0.681 -0.216,-0.083 -0.392,-0.432 -0.392,-0.777 0,-0.344 -0.118,-0.625 -0.262,-0.625 -0.144,0 -0.261,-0.294 -0.261,-0.654 0,-0.359 -0.118,-0.653 -0.262,-0.653 -0.144,0 -0.261,-0.181 -0.261,-0.401 0,-0.22 -0.177,-0.468 -0.392,-0.551 -0.216,-0.082 -0.393,-0.408 -0.393,-0.724 0,-0.795 -0.586,-1.98 -0.98,-1.982 -0.18,-0.002 -0.327,-0.298 -0.327,-0.66 0,-0.361 -0.107,-0.861 -0.239,-1.111 -0.132,-0.249 -0.432,-0.895 -0.666,-1.434 -0.235,-0.539 -0.539,-0.981 -0.676,-0.981 -0.137,0 -0.249,-0.294 -0.249,-0.653 0,-0.36 -0.117,-0.654 -0.261,-0.654 -0.144,0 -0.262,-0.294 -0.262,-0.653 0,-0.36 -0.117,-0.654 -0.261,-0.654 -0.144,0 -0.262,-0.227 -0.262,-0.504 0,-0.277 -0.176,-0.681 -0.392,-0.896 -0.215,-0.216 -0.392,-0.495 -0.392,-0.621 0,-0.393 -0.644,-1.635 -0.85,-1.637 -0.107,-10e-4 -0.196,-0.288 -0.196,-0.637 0,-0.349 -0.176,-0.811 -0.392,-1.027 -0.215,-0.216 -0.392,-0.57 -0.392,-0.788 0,-0.217 -0.118,-0.468 -0.261,-0.557 -0.144,-0.088 -0.262,-0.39 -0.262,-0.669 0,-0.279 -0.176,-0.507 -0.392,-0.507 -0.244,0 -0.392,-0.247 -0.392,-0.654 0,-0.359 -0.118,-0.653 -0.262,-0.653 -0.143,0 -0.261,-0.294 -0.261,-0.654 0,-0.359 -0.118,-0.653 -0.261,-0.653 -0.144,0 -0.262,-0.282 -0.262,-0.626 0,-0.344 -0.176,-0.693 -0.392,-0.776 -0.216,-0.083 -0.392,-0.331 -0.392,-0.551 0,-0.22 -0.118,-0.4 -0.262,-0.4 -0.143,0 -0.261,-0.412 -0.261,-0.915 0,-0.504 -0.118,-0.915 -0.261,-0.915 -0.144,0 -0.262,-0.163 -0.262,-0.361 0,-0.198 -0.176,-0.506 -0.392,-0.685 -0.216,-0.179 -0.392,-0.605 -0.392,-0.947 0,-0.342 -0.118,-0.622 -0.262,-0.622 -0.143,0 -0.261,-0.158 -0.261,-0.352 0,-0.524 -0.786,-2.001 -1.065,-2.001 -0.133,0 -0.242,-0.294 -0.242,-0.653 0,-0.36 -0.118,-0.654 -0.262,-0.654 -0.144,0 -0.261,-0.294 -0.261,-0.654 0,-0.359 -0.108,-0.653 -0.241,-0.653 -0.132,0 -0.318,-0.353 -0.413,-0.784 -0.095,-0.432 -0.28,-0.785 -0.413,-0.785 -0.132,0 -0.24,-0.294 -0.24,-0.653 0,-0.36 -0.118,-0.654 -0.262,-0.654 -0.144,0 -0.261,-0.239 -0.261,-0.531 0,-0.292 -0.177,-0.599 -0.392,-0.682 -0.216,-0.082 -0.393,-0.432 -0.393,-0.776 0,-0.344 -0.117,-0.625 -0.261,-0.625 -0.144,0 -0.261,-0.229 -0.261,-0.508 0,-0.279 -0.118,-0.58 -0.262,-0.669 -0.144,-0.089 -0.261,-0.39 -0.261,-0.669 0,-0.279 -0.177,-0.507 -0.392,-0.507 -0.244,0 -0.393,-0.247 -0.393,-0.654 0,-0.359 -0.117,-0.653 -0.261,-0.653 -0.144,0 -0.261,-0.295 -0.261,-0.654 0,-0.36 -0.118,-0.654 -0.262,-0.654 -0.144,0 -0.261,-0.239 -0.261,-0.531 0,-0.292 -0.177,-0.599 -0.393,-0.681 -0.22,-0.085 -0.392,-0.474 -0.392,-0.892 0,-0.407 -0.117,-0.813 -0.261,-0.902 -0.144,-0.089 -0.262,-0.39 -0.262,-0.669 0,-0.279 -0.115,-0.508 -0.256,-0.508 -0.141,0 -0.33,-0.294 -0.421,-0.653 -0.09,-0.36 -0.268,-0.654 -0.397,-0.654 -0.128,0 -0.233,-0.294 -0.233,-0.653 0,-0.36 -0.117,-0.654 -0.261,-0.654 -0.144,0 -0.262,-0.239 -0.262,-0.531 0,-0.292 -0.176,-0.599 -0.392,-0.682 -0.223,-0.085 -0.392,-0.475 -0.392,-0.907 0,-0.416 -0.118,-0.756 -0.261,-0.756 -0.144,0 -0.262,-0.176 -0.262,-0.392 0,-0.216 -0.117,-0.392 -0.261,-0.392 -0.144,0 -0.262,-0.286 -0.262,-0.635 0,-0.349 -0.176,-0.811 -0.392,-1.027 -0.216,-0.216 -0.392,-0.57 -0.392,-0.788 0,-0.217 -0.118,-0.468 -0.261,-0.557 -0.144,-0.089 -0.262,-0.39 -0.262,-0.669 0,-0.279 -0.118,-0.507 -0.261,-0.507 -0.144,0 -0.262,-0.239 -0.262,-0.531 0,-0.292 -0.176,-0.599 -0.392,-0.682 -0.216,-0.083 -0.392,-0.432 -0.392,-0.776 0,-0.344 -0.118,-0.626 -0.262,-0.626 -0.143,0 -0.261,-0.294 -0.261,-0.653 0,-0.36 -0.118,-0.654 -0.261,-0.654 -0.144,0 -0.262,-0.222 -0.262,-0.495 0,-0.272 -0.176,-0.562 -0.392,-0.645 -0.216,-0.083 -0.392,-0.329 -0.392,-0.548 0,-0.516 -0.802,-1.449 -1.246,-1.449 -0.189,0 -0.597,-0.235 -0.906,-0.523 -0.309,-0.287 -0.774,-0.523 -1.035,-0.523 -0.26,0 -0.473,-0.176 -0.473,-0.392 0,-0.234 -0.241,-0.392 -0.596,-0.392 -0.328,0 -0.766,-0.235 -0.973,-0.523 -0.207,-0.288 -0.645,-0.523 -0.973,-0.523 -0.327,0 -0.596,-0.126 -0.596,-0.28 0,-0.441 -0.699,-1.027 -1.226,-1.027 -0.264,0 -0.7,-0.294 -0.97,-0.654 -0.27,-0.359 -0.71,-0.653 -0.977,-0.653 -0.268,0 -0.487,-0.118 -0.487,-0.262 0,-0.143 -0.126,-0.261 -0.28,-0.261 -0.154,0 -0.444,-0.147 -0.644,-0.327 -0.671,-0.601 -1.031,-0.847 -1.821,-1.241 -0.431,-0.216 -0.878,-0.539 -0.993,-0.719 -0.115,-0.18 -0.413,-0.327 -0.661,-0.327 -0.249,0 -0.622,-0.236 -0.829,-0.523 -0.208,-0.288 -0.528,-0.523 -0.712,-0.523 -0.184,0 -0.334,-0.177 -0.334,-0.392 0,-0.216 -0.118,-0.393 -0.262,-0.393 -0.143,0 -0.261,-0.182 -0.261,-0.404 0,-0.222 -0.529,-0.942 -1.177,-1.598 -0.647,-0.656 -1.176,-1.279 -1.176,-1.385 0,-0.105 -0.294,-0.533 -0.653,-0.951 -0.36,-0.418 -0.654,-0.828 -0.654,-0.911 0,-0.084 -0.294,-0.31 -0.654,-0.502 -0.359,-0.193 -0.653,-0.504 -0.653,-0.692 0,-0.188 -0.294,-0.535 -0.654,-0.77 -0.359,-0.236 -0.654,-0.602 -0.654,-0.814 0,-0.212 -0.529,-0.9 -1.176,-1.529 -0.647,-0.628 -1.176,-1.281 -1.176,-1.449 0,-0.168 -0.412,-0.694 -0.916,-1.168 -0.503,-0.475 -0.915,-0.959 -0.917,-1.077 -0.003,-0.307 -1.302,-0.867 -2.01,-0.867 -0.331,0 -0.602,-0.118 -0.602,-0.262 0,-0.143 -0.517,-0.261 -1.148,-0.261 -0.78,0 -1.197,-0.126 -1.299,-0.392 -0.088,-0.229 -0.48,-0.392 -0.943,-0.392 -0.436,0 -0.793,-0.118 -0.793,-0.262 0,-0.144 -0.471,-0.261 -1.046,-0.261 -0.575,0 -1.045,-0.105 -1.045,-0.232 0,-0.127 -0.53,-0.311 -1.177,-0.408 -0.647,-0.097 -1.176,-0.287 -1.176,-0.422 0,-0.135 -0.294,-0.245 -0.654,-0.245 -0.359,0 -0.654,-0.118 -0.654,-0.262 0,-0.144 -0.647,-0.261 -1.437,-0.261 -0.791,0 -1.438,-0.118 -1.438,-0.262 0,-0.144 -0.53,-0.261 -1.177,-0.261 -0.647,0 -1.176,0.117 -1.176,0.261 0,0.736 -1.221,0.07 -2.876,-1.568 -1.017,-1.007 -1.912,-1.83 -1.989,-1.83 -0.197,0 -0.887,-0.712 -0.887,-0.915 0,-0.365 -0.776,-0.915 -1.288,-0.915 -0.298,0 -0.542,-0.127 -0.542,-0.281 0,-0.362 -0.665,-1.027 -1.027,-1.027 -0.154,0 -0.28,-0.123 -0.28,-0.273 0,-0.355 -1.202,-1.557 -1.557,-1.557 -0.15,0 -0.273,-0.123 -0.273,-0.273 0,-0.355 -1.202,-1.557 -1.557,-1.557 -0.15,0 -0.273,-0.126 -0.273,-0.28 0,-0.305 -0.644,-1.027 -0.915,-1.027 -0.219,0 -0.915,-0.697 -0.915,-0.915 0,-0.201 -0.69,-0.915 -0.884,-0.915 -0.076,0 -0.72,-0.559 -1.432,-1.242 -1.647,-1.58 -2.043,-1.895 -2.379,-1.895 -0.15,0 -0.273,-0.118 -0.273,-0.262 0,-0.144 -0.411,-0.261 -0.915,-0.261 -0.59,0 -0.915,-0.124 -0.915,-0.351 0,-0.192 -0.47,-0.505 -1.046,-0.695 -0.575,-0.19 -1.045,-0.444 -1.045,-0.565 0,-0.12 -0.353,-0.219 -0.785,-0.219 -0.522,0 -0.784,-0.131 -0.784,-0.392 0,-0.244 -0.247,-0.393 -0.654,-0.393 -0.359,0 -0.653,-0.117 -0.653,-0.261 0,-0.144 -0.235,-0.261 -0.523,-0.261 -0.288,0 -0.523,-0.105 -0.523,-0.234 0,-0.128 -0.294,-0.306 -0.653,-0.397 -0.36,-0.09 -0.654,-0.279 -0.654,-0.42 0,-0.141 -0.294,-0.257 -0.654,-0.257 -0.359,0 -0.653,-0.117 -0.653,-0.261 0,-0.144 -0.294,-0.262 -0.654,-0.262 -0.407,0 -0.653,-0.148 -0.653,-0.392 0,-0.337 -0.856,-0.392 -6.129,-0.392 -3.803,0 -6.189,-0.099 -6.29,-0.261 -0.089,-0.144 -0.625,-0.262 -1.192,-0.262 -0.566,0 -1.03,-0.117 -1.03,-0.261 0,-0.144 -0.164,-0.262 -0.364,-0.262 -0.2,0 -0.432,-0.176 -0.515,-0.392 -0.083,-0.215 -0.33,-0.392 -0.551,-0.392 -0.22,0 -0.4,-0.118 -0.4,-0.261 0,-0.144 -0.176,-0.262 -0.392,-0.262 -0.216,0 -0.392,-0.117 -0.392,-0.261 0,-0.144 -0.239,-0.262 -0.531,-0.262 -0.293,0 -0.599,-0.176 -0.682,-0.392 -0.083,-0.215 -0.373,-0.392 -0.645,-0.392 -0.273,0 -0.495,-0.118 -0.495,-0.261 0,-0.144 -0.177,-0.262 -0.392,-0.262 -0.216,0 -0.393,-0.117 -0.393,-0.261 0,-0.144 -0.235,-0.262 -0.522,-0.262 -0.291,0 -0.523,-0.174 -0.523,-0.392 0,-0.216 -0.177,-0.392 -0.393,-0.392 -0.215,0 -0.392,-0.118 -0.392,-0.261 0,-0.144 -0.182,-0.262 -0.404,-0.262 -0.223,0 -0.678,-0.294 -1.011,-0.653 -0.333,-0.36 -0.798,-0.654 -1.033,-0.654 -0.235,0 -0.427,-0.118 -0.427,-0.262 0,-0.143 -0.155,-0.261 -0.344,-0.261 -0.189,0 -0.505,-0.412 -0.702,-0.915 -0.198,-0.503 -0.514,-0.915 -0.703,-0.915 -0.188,0 -0.343,-0.123 -0.343,-0.273 0,-0.355 -1.202,-1.557 -1.557,-1.557 -0.15,0 -0.273,-0.294 -0.273,-0.654 0,-0.359 -0.098,-0.653 -0.217,-0.653 -0.12,0 -0.375,-0.294 -0.567,-0.654 -0.193,-0.359 -0.456,-0.653 -0.586,-0.653 -0.409,0 -0.983,-0.727 -0.983,-1.245 0,-0.273 -0.294,-0.655 -0.654,-0.847 -0.359,-0.192 -0.653,-0.453 -0.653,-0.579 0,-0.126 -0.294,-0.523 -0.654,-0.883 -0.359,-0.359 -0.653,-0.824 -0.653,-1.034 0,-0.209 -0.118,-0.38 -0.262,-0.38 -0.33,0 -0.346,-2.269 -0.018,-2.472 0.134,-0.083 0.324,-0.796 0.422,-1.584 0.099,-0.789 0.283,-1.434 0.411,-1.434 0.127,0 0.231,-0.522 0.231,-1.161 0,-0.639 0.118,-1.234 0.261,-1.323 0.144,-0.089 0.262,-0.751 0.262,-1.472 0,-0.816 0.148,-1.458 0.392,-1.702 0.216,-0.216 0.392,-0.789 0.392,-1.273 0,-0.485 0.118,-0.954 0.262,-1.043 0.143,-0.089 0.261,-0.736 0.261,-1.438 0,-0.702 0.118,-1.349 0.261,-1.438 0.144,-0.089 0.262,-0.625 0.262,-1.192 v -1.03 h 5.621 c 3.091,0 5.621,-0.103 5.621,-0.23 0,-0.126 0.344,-0.372 0.765,-0.547 0.422,-0.174 0.979,-0.6 1.239,-0.946 0.26,-0.347 0.719,-0.63 1.02,-0.63 0.316,0 0.695,-0.276 0.897,-0.653 0.193,-0.36 0.536,-0.658 0.763,-0.662 0.529,-0.011 1.329,-0.614 1.329,-1.001 0,-0.164 0.176,-0.298 0.392,-0.298 0.216,0 0.392,-0.118 0.392,-0.262 0,-0.143 0.235,-0.261 0.523,-0.261 0.288,0 0.523,-0.118 0.523,-0.262 0,-0.143 0.176,-0.261 0.392,-0.261 0.216,0 0.392,-0.176 0.392,-0.392 0,-0.218 0.233,-0.392 0.523,-0.392 0.288,0 0.523,-0.118 0.523,-0.262 0,-0.144 0.126,-0.261 0.28,-0.261 0.362,0 1.027,-0.665 1.027,-1.027 0,-0.162 0.552,-0.28 1.307,-0.28 0.804,0 1.307,0.114 1.307,0.298 0,0.401 0.808,0.99 1.373,1.001 0.252,0.004 0.458,0.125 0.458,0.269 0,0.144 0.294,0.262 0.653,0.262 0.36,0 0.654,0.126 0.654,0.28 0,0.461 0.709,1.027 1.288,1.027 0.298,0 0.542,0.118 0.542,0.261 0,0.144 0.34,0.262 0.756,0.262 0.769,0 1.074,-0.377 1.074,-1.329 0,-0.276 0.118,-0.501 0.261,-0.501 0.144,0 0.262,-0.229 0.262,-0.508 0,-0.279 0.117,-0.58 0.261,-0.669 0.144,-0.089 0.262,-0.398 0.262,-0.687 0,-0.29 0.176,-0.703 0.392,-0.919 0.215,-0.215 0.392,-0.619 0.392,-0.896 0,-0.277 0.118,-0.504 0.261,-0.504 0.144,0 0.262,-0.294 0.262,-0.654 0,-0.359 0.112,-0.653 0.249,-0.653 0.138,0 0.327,-0.412 0.422,-0.916 0.094,-0.503 0.276,-0.915 0.404,-0.915 0.127,0 0.232,-0.294 0.232,-0.653 0,-0.36 0.118,-0.654 0.261,-0.654 0.144,0 0.262,-0.356 0.262,-0.792 0,-0.464 0.163,-0.855 0.392,-0.943 0.216,-0.083 0.392,-0.432 0.392,-0.776 0,-0.344 0.118,-0.626 0.262,-0.626 0.143,0 0.261,-0.235 0.261,-0.523 0,-0.287 0.118,-0.523 0.262,-0.523 0.143,0 0.261,-0.279 0.261,-0.621 0,-0.342 0.176,-0.768 0.392,-0.947 0.323,-0.268 0.392,-1.18 0.392,-5.139 0,-4.036 -0.063,-4.837 -0.392,-4.963 -0.335,-0.128 -0.392,-1.171 -0.392,-7.166 0,-4.395 -0.098,-7.076 -0.261,-7.177 -0.443,-0.273 -0.327,-2.483 0.13,-2.483 0.216,0 0.392,0.117 0.392,0.261 0,0.144 0.223,0.261 0.495,0.261 0.272,0 0.563,0.177 0.646,0.393 0.082,0.215 0.389,0.392 0.681,0.392 0.292,0 0.531,0.117 0.531,0.261 0,0.144 0.294,0.262 0.654,0.262 0.407,0 0.654,0.148 0.654,0.392 0,0.218 0.232,0.392 0.522,0.392 0.288,0 0.523,0.118 0.523,0.261 0,0.144 0.294,0.262 0.654,0.262 0.359,0 0.653,0.117 0.653,0.261 0,0.144 0.177,0.262 0.393,0.262 0.215,0 0.393,0.088 0.393,0.196 0.003,0.263 1.514,1.111 1.981,1.111 0.204,0 0.371,0.118 0.371,0.261 0,0.144 0.294,0.262 0.653,0.262 0.407,0 0.654,0.148 0.654,0.392 0,0.218 0.232,0.392 0.523,0.392 0.287,0 0.523,0.118 0.523,0.261 0,0.144 0.294,0.262 0.653,0.262 0.36,0 0.654,0.118 0.654,0.261 0,0.144 0.294,0.262 0.653,0.262 0.36,0 0.654,0.134 0.654,0.298 0,0.402 0.808,0.99 1.373,1.001 0.251,0.004 0.457,0.126 0.457,0.269 0,0.144 0.412,0.262 0.915,0.262 0.741,0 0.915,-0.1 0.915,-0.523 0,-0.288 0.118,-0.523 0.262,-0.523 0.143,0 0.261,-0.281 0.261,-0.626 0,-0.344 0.147,-0.682 0.327,-0.751 0.381,-0.147 1.503,-2.162 1.503,-2.7 0,-0.202 0.116,-0.367 0.257,-0.367 0.141,0 0.33,-0.294 0.42,-0.654 0.09,-0.359 0.269,-0.654 0.397,-0.654 0.128,0 0.233,-0.235 0.233,-0.522 0,-0.288 0.118,-0.523 0.262,-0.523 0.144,0 0.261,-0.294 0.261,-0.654 0,-0.407 0.148,-0.653 0.392,-0.653 0.244,0 0.392,-0.247 0.392,-0.654 0,-0.36 0.118,-0.654 0.262,-0.654 0.144,0 0.261,-0.176 0.261,-0.392 0,-0.215 0.118,-0.392 0.262,-0.392 0.144,0 0.261,-0.235 0.261,-0.523 0,-0.287 0.109,-0.523 0.243,-0.523 0.278,0 1.064,-1.477 1.064,-2.001 0,-0.193 0.116,-0.352 0.257,-0.352 0.141,0 0.33,-0.294 0.42,-0.653 0.091,-0.36 0.269,-0.654 0.398,-0.654 0.128,0 0.233,-0.228 0.233,-0.507 0,-0.279 0.117,-0.58 0.261,-0.669 0.144,-0.089 0.261,-0.325 0.261,-0.525 0,-0.2 0.295,-0.681 0.654,-1.069 0.36,-0.388 0.654,-0.923 0.654,-1.19 0,-0.266 0.117,-0.484 0.261,-0.484 0.144,0 0.262,-0.223 0.262,-0.495 0,-0.272 0.176,-0.563 0.392,-0.646 0.215,-0.082 0.392,-0.389 0.392,-0.681 0,-0.292 0.118,-0.531 0.261,-0.531 0.144,0 0.262,-0.294 0.262,-0.654 0,-0.359 0.117,-0.653 0.261,-0.653 0.144,0 0.262,-0.53 0.262,-1.177 0,-1.002 -0.078,-1.176 -0.523,-1.176 -0.288,0 -0.523,-0.118 -0.523,-0.262 0,-0.144 -0.282,-0.261 -0.626,-0.261 -0.344,0 -0.693,-0.177 -0.776,-0.392 -0.083,-0.216 -0.389,-0.393 -0.681,-0.393 -0.293,0 -0.532,-0.117 -0.532,-0.261 0,-0.144 -0.228,-0.261 -0.507,-0.261 -0.279,0 -0.58,-0.118 -0.669,-0.262 -0.089,-0.144 -0.39,-0.261 -0.669,-0.261 -0.279,0 -0.507,-0.177 -0.507,-0.392 0,-0.216 -0.177,-0.393 -0.393,-0.393 -0.215,0 -0.392,-0.117 -0.392,-0.261 0,-0.144 -0.228,-0.261 -0.507,-0.261 -0.279,0 -0.58,-0.118 -0.669,-0.262 -0.089,-0.144 -0.39,-0.261 -0.669,-0.261 -0.279,0 -0.508,-0.177 -0.508,-0.393 0,-0.244 -0.247,-0.392 -0.653,-0.392 -0.36,0 -0.654,-0.117 -0.654,-0.261 0,-0.144 -0.223,-0.262 -0.495,-0.262 -0.272,0 -0.562,-0.176 -0.645,-0.392 -0.083,-0.215 -0.39,-0.392 -0.682,-0.392 -0.292,0 -0.531,-0.118 -0.531,-0.261 0,-0.144 -0.24,-0.262 -0.535,-0.262 -0.294,0 -0.828,-0.294 -1.188,-0.653 -0.359,-0.36 -0.825,-0.654 -1.034,-0.654 -0.209,0 -0.38,-0.118 -0.38,-0.261 0,-0.144 -0.294,-0.262 -0.654,-0.262 -0.359,0 -0.653,-0.117 -0.653,-0.261 0,-0.144 -0.177,-0.262 -0.392,-0.262 -0.727,0 -1.584,-1.074 -1.081,-1.355 0.235,-0.132 0.427,-0.462 0.427,-0.734 0,-0.272 0.118,-0.567 0.261,-0.656 0.144,-0.089 0.262,-0.618 0.262,-1.176 0,-0.558 0.117,-1.088 0.261,-1.177 0.144,-0.089 0.262,-0.493 0.262,-0.898 0,-0.405 0.176,-0.884 0.392,-1.063 0.249,-0.206 0.392,-0.784 0.392,-1.585 0,-0.693 0.118,-1.332 0.261,-1.421 0.144,-0.089 0.262,-0.684 0.262,-1.323 0,-0.638 0.118,-1.161 0.261,-1.161 0.147,0 0.262,-0.73 0.262,-1.667 0,-1.163 0.118,-1.766 0.392,-1.993 0.225,-0.187 0.392,-0.757 0.392,-1.339 v -1.014 h 7.04 c 5.91,0 7.103,-0.063 7.433,-0.392 0.311,-0.311 1.149,-0.392 4.071,-0.392 h 3.678 v -4.818 c 0,-3.934 -0.072,-4.89 -0.392,-5.21 -0.334,-0.334 -0.392,-1.771 -0.392,-9.66 0,-10.939 0.363,-9.952 -3.577,-9.729 -8.758,0.494 -18.645,0.432 -18.645,-0.118 0,-0.292 -0.118,-0.53 -0.262,-0.53 -0.143,0 -0.261,-0.53 -0.261,-1.177 0,-0.647 -0.118,-1.176 -0.262,-1.176 -0.143,0 -0.261,-0.589 -0.261,-1.308 0,-0.987 -0.096,-1.307 -0.392,-1.307 -0.282,0 -0.392,-0.289 -0.392,-1.03 0,-0.567 -0.118,-1.103 -0.262,-1.192 -0.144,-0.089 -0.261,-0.618 -0.261,-1.176 0,-0.559 -0.118,-1.088 -0.262,-1.177 -0.143,-0.089 -0.261,-0.452 -0.261,-0.808 0,-0.355 -0.177,-0.714 -0.392,-0.797 -0.242,-0.093 -0.392,-0.49 -0.392,-1.037 0,-0.488 -0.118,-0.887 -0.262,-0.887 -0.144,0 -0.261,-0.339 -0.261,-0.753 0,-0.413 -0.177,-0.898 -0.392,-1.077 -0.216,-0.179 -0.393,-0.664 -0.393,-1.078 0,-0.495 0.135,-0.752 0.393,-0.752 0.215,0 0.392,-0.118 0.392,-0.262 0,-0.144 0.239,-0.261 0.531,-0.261 0.292,0 0.599,-0.177 0.681,-0.393 0.083,-0.215 0.374,-0.392 0.646,-0.392 0.272,0 0.495,-0.117 0.495,-0.261 0,-0.144 0.176,-0.262 0.392,-0.262 0.216,0 0.392,-0.176 0.392,-0.392 0,-0.218 0.232,-0.392 0.523,-0.392 0.287,0 0.523,-0.118 0.523,-0.261 0,-0.144 0.176,-0.262 0.392,-0.262 0.216,0 0.392,-0.117 0.392,-0.261 0,-0.144 0.235,-0.262 0.523,-0.262 0.29,0 0.523,-0.174 0.523,-0.392 0,-0.244 0.247,-0.392 0.653,-0.392 0.36,0 0.654,-0.096 0.654,-0.213 0,-0.117 0.412,-0.374 0.915,-0.571 0.503,-0.198 0.915,-0.514 0.915,-0.703 0,-0.188 0.268,-0.343 0.596,-0.343 0.328,0 0.765,-0.235 0.973,-0.523 0.207,-0.287 0.59,-0.523 0.85,-0.523 0.26,0 0.541,-0.176 0.624,-0.392 0.083,-0.216 0.344,-0.392 0.58,-0.392 0.236,-10e-4 0.771,-0.295 1.189,-0.654 0.418,-0.359 0.918,-0.653 1.111,-0.653 0.193,0 0.352,-0.096 0.352,-0.213 0,-0.117 0.411,-0.374 0.915,-0.572 0.919,-0.36 1.064,-0.678 0.94,-2.06 -0.031,-0.342 -0.196,-0.779 -0.367,-0.971 -0.768,-0.86 -0.966,-1.147 -0.966,-1.402 0,-0.15 -0.117,-0.272 -0.261,-0.272 -0.144,0 -0.261,-0.236 -0.261,-0.523 0,-0.288 -0.11,-0.523 -0.244,-0.523 -0.134,0 -0.325,-0.256 -0.424,-0.568 -0.1,-0.313 -0.402,-0.806 -0.672,-1.095 -0.27,-0.29 -0.49,-0.74 -0.49,-1.001 0,-0.26 -0.177,-0.473 -0.393,-0.473 -0.233,0 -0.392,-0.241 -0.392,-0.596 0,-0.328 -0.235,-0.766 -0.523,-0.973 -0.287,-0.207 -0.523,-0.57 -0.523,-0.805 0,-0.236 -0.294,-0.65 -0.653,-0.92 -0.36,-0.27 -0.654,-0.756 -0.654,-1.082 0,-0.326 -0.117,-0.592 -0.261,-0.592 -0.144,0 -0.262,-0.171 -0.262,-0.38 0,-0.209 -0.294,-0.674 -0.653,-1.034 -0.36,-0.359 -0.654,-0.866 -0.654,-1.126 0,-0.26 -0.294,-0.694 -0.653,-0.964 -0.36,-0.27 -0.654,-0.632 -0.654,-0.806 0,-0.496 -0.796,-1.964 -1.065,-1.964 -0.133,0 -0.242,-0.236 -0.242,-0.523 0,-0.288 -0.118,-0.523 -0.262,-0.523 -0.143,0 -0.261,-0.177 -0.261,-0.392 0,-0.216 -0.118,-0.392 -0.261,-0.392 -0.144,0 -0.262,-0.171 -0.262,-0.38 0,-0.208 -0.149,-0.473 -0.33,-0.588 -0.182,-0.115 -0.612,-0.768 -0.956,-1.451 -0.58,-1.15 -0.698,-1.241 -1.61,-1.241 -0.945,0 -2.589,0.704 -2.592,1.111 -0.001,0.107 -0.179,0.196 -0.394,0.196 -0.216,0 -0.392,0.117 -0.392,0.261 0,0.144 -0.193,0.262 -0.428,0.262 -0.235,0 -0.7,0.294 -1.033,0.653 -0.333,0.36 -0.748,0.654 -0.921,0.654 -0.173,0 -0.7,0.294 -1.171,0.653 -0.471,0.36 -0.982,0.654 -1.136,0.654 -0.153,0 -0.279,0.118 -0.279,0.261 0,0.144 -0.235,0.262 -0.523,0.262 -0.287,0 -0.522,0.117 -0.522,0.261 0,0.144 -0.177,0.262 -0.393,0.262 -0.215,0 -0.392,0.176 -0.392,0.392 0,0.218 -0.232,0.392 -0.523,0.392 -0.287,0 -0.523,0.118 -0.523,0.261 0,0.144 -0.251,0.262 -0.558,0.262 -0.307,0 -0.831,0.294 -1.164,0.654 -0.333,0.359 -0.788,0.653 -1.01,0.653 -0.223,0 -0.405,0.118 -0.405,0.262 0,0.143 -0.176,0.261 -0.392,0.261 -0.216,0 -0.392,0.118 -0.392,0.261 0,0.144 -0.235,0.262 -0.523,0.262 -0.29,0 -0.523,0.174 -0.523,0.392 0,0.234 -0.24,0.392 -0.596,0.392 -0.327,0 -0.765,0.235 -0.972,0.523 -0.492,0.682 -1.569,0.406 -1.569,-0.402 0,-0.206 -0.444,-0.7 -3.18,-3.535 -1.103,-1.142 -2.132,-2.076 -2.288,-2.076 -0.156,0 -0.284,-0.133 -0.284,-0.296 0,-0.307 -1.297,-1.533 -1.622,-1.534 -0.101,0 -0.478,-0.294 -0.838,-0.654 -0.359,-0.359 -0.776,-0.653 -0.927,-0.653 -0.15,0 -0.273,-0.149 -0.273,-0.33 0,-0.182 -0.313,-0.564 -0.697,-0.85 -0.383,-0.286 -0.826,-0.648 -0.985,-0.805 -0.159,-0.157 -0.552,-0.426 -0.872,-0.598 -0.684,-0.366 -0.728,-0.634 -0.191,-1.171 0.216,-0.215 0.392,-0.577 0.392,-0.803 0,-0.226 0.09,-0.411 0.2,-0.411 0.199,0 0.672,-0.774 0.996,-1.634 0.095,-0.251 0.276,-0.457 0.403,-0.457 0.127,0 0.231,-0.235 0.231,-0.523 0,-0.288 0.118,-0.523 0.262,-0.523 0.143,0 0.261,-0.294 0.261,-0.653 0,-0.407 0.148,-0.654 0.392,-0.654 0.244,0 0.392,-0.247 0.392,-0.654 0,-0.359 0.118,-0.653 0.262,-0.653 0.144,0 0.261,-0.236 0.261,-0.523 0,-0.288 0.118,-0.523 0.262,-0.523 0.144,0 0.261,-0.294 0.261,-0.654 0,-0.359 0.134,-0.653 0.298,-0.653 0.402,0 0.991,-0.808 1.001,-1.373 0.005,-0.251 0.126,-0.457 0.27,-0.457 0.144,0 0.261,-0.294 0.261,-0.654 0,-0.407 0.148,-0.653 0.392,-0.653 0.216,0 0.393,-0.229 0.393,-0.508 0,-0.279 0.117,-0.58 0.261,-0.669 0.144,-0.089 0.261,-0.39 0.261,-0.669 0,-0.279 0.115,-0.507 0.255,-0.507 0.34,0 1.053,-1.407 1.053,-2.079 0,-0.295 0.117,-0.536 0.261,-0.536 0.381,0 0.32,-1.552 -0.075,-1.914 -0.512,-0.468 -1.446,-0.962 -1.819,-0.962 -0.184,0 -0.651,-0.294 -1.038,-0.653 -0.388,-0.36 -0.946,-0.654 -1.24,-0.654 -0.293,0 -0.534,-0.117 -0.534,-0.261 0,-0.144 -0.223,-0.262 -0.495,-0.262 -0.272,0 -0.562,-0.176 -0.645,-0.392 -0.083,-0.215 -0.39,-0.392 -0.682,-0.392 -0.292,0 -0.531,-0.118 -0.531,-0.261 0,-0.144 -0.248,-0.262 -0.55,-0.262 -0.303,0 -0.782,-0.294 -1.065,-0.653 -0.283,-0.36 -0.734,-0.654 -1.003,-0.654 -0.268,0 -0.561,-0.118 -0.65,-0.261 -0.089,-0.144 -0.39,-0.262 -0.669,-0.262 -0.279,0 -0.507,-0.109 -0.507,-0.242 0,-0.279 -1.477,-1.065 -2.001,-1.065 -0.194,0 -0.352,-0.118 -0.352,-0.262 0,-0.143 -0.294,-0.261 -0.654,-0.261 -0.406,0 -0.653,-0.148 -0.653,-0.392 0,-0.216 -0.213,-0.392 -0.474,-0.392 -0.26,0 -0.726,-0.236 -1.035,-0.523 -0.308,-0.288 -0.789,-0.523 -1.067,-0.523 -0.278,0 -0.573,-0.176 -0.656,-0.392 -0.083,-0.216 -0.331,-0.392 -0.551,-0.392 -0.22,0 -0.4,-0.118 -0.4,-0.262 0,-0.144 -0.294,-0.261 -0.654,-0.261 -0.359,0 -0.654,-0.105 -0.654,-0.233 0,-0.129 -0.294,-0.307 -0.653,-0.397 -0.36,-0.091 -0.654,-0.28 -0.654,-0.421 0,-0.141 -0.176,-0.256 -0.392,-0.256 -0.216,0 -0.392,-0.118 -0.392,-0.262 0,-0.144 -0.235,-0.261 -0.523,-0.261 -0.287,0 -0.523,-0.118 -0.523,-0.262 0,-0.522 -1.525,-0.287 -1.699,0.262 -0.091,0.287 -0.276,0.523 -0.41,0.523 -0.134,0 -0.244,0.294 -0.244,0.653 0,0.36 -0.109,0.654 -0.242,0.654 -0.279,0 -1.065,1.477 -1.065,2.001 0,0.193 -0.118,0.352 -0.261,0.352 -0.144,0 -0.262,0.164 -0.262,0.364 0,0.2 -0.176,0.432 -0.392,0.515 -0.216,0.082 -0.392,0.389 -0.392,0.681 0,0.292 -0.118,0.531 -0.262,0.531 -0.143,0 -0.261,0.236 -0.261,0.523 0,0.288 -0.118,0.523 -0.261,0.523 -0.144,0 -0.262,0.294 -0.262,0.654 0,0.406 -0.148,0.653 -0.392,0.653 -0.221,0 -0.392,0.234 -0.392,0.534 0,0.294 -0.235,0.786 -0.523,1.095 -0.288,0.309 -0.523,0.774 -0.523,1.035 0,0.26 -0.109,0.473 -0.242,0.473 -0.279,0 -1.065,1.477 -1.065,2.001 0,0.194 -0.105,0.352 -0.233,0.352 -0.128,0 -0.307,0.294 -0.397,0.654 -0.091,0.359 -0.28,0.654 -0.421,0.654 -0.141,0 -0.256,0.294 -0.256,0.653 0,0.36 -0.118,0.654 -0.262,0.654 -0.144,0 -0.261,0.164 -0.261,0.364 0,0.2 -0.177,0.432 -0.392,0.515 -0.216,0.082 -0.392,0.33 -0.392,0.55 0,0.284 -0.268,0.401 -0.916,0.401 -0.639,0 -0.915,-0.118 -0.915,-0.392 0,-0.274 -0.276,-0.393 -0.915,-0.393 -0.503,0 -0.915,-0.117 -0.915,-0.261 0,-0.144 -0.529,-0.261 -1.176,-0.261 -0.647,0 -1.177,-0.118 -1.177,-0.262 0,-0.144 -0.415,-0.261 -0.923,-0.261 -0.579,0 -0.979,-0.146 -1.074,-0.392 -0.111,-0.292 -0.575,-0.393 -1.806,-0.393 -0.911,0 -1.729,-0.117 -1.817,-0.261 -0.089,-0.144 -0.634,-0.261 -1.211,-0.261 -0.584,0 -1.223,-0.174 -1.441,-0.393 -0.258,-0.258 -0.909,-0.392 -1.906,-0.392 h -1.513 l -0.292,-3.595 c -0.161,-1.977 -0.359,-6.879 -0.44,-10.893 -0.082,-4.014 -0.209,-7.396 -0.283,-7.516 -0.128,-0.207 -18.867,-0.226 -22.196,-0.023 m 6.166,51.047 c 0.419,0 0.763,-0.118 0.763,-0.262 0,-0.159 1.171,-0.261 2.991,-0.261 1.712,0 3.06,0.112 3.152,0.261 0.089,0.144 0.449,0.262 0.8,0.262 0.351,0 0.638,-0.118 0.638,-0.262 0,-0.373 2.287,-0.328 2.413,0.048 0.065,0.195 0.642,0.295 1.566,0.27 0.938,-0.024 1.506,0.076 1.584,0.28 0.078,0.202 0.87,0.346 2.182,0.395 1.132,0.043 2.098,0.19 2.146,0.327 0.048,0.137 0.483,0.249 0.965,0.249 0.483,0 0.951,0.118 1.04,0.261 0.089,0.144 0.633,0.262 1.21,0.262 0.584,0 1.223,0.174 1.441,0.392 0.216,0.216 0.73,0.392 1.143,0.392 0.412,0 0.823,0.118 0.912,0.262 0.088,0.143 0.448,0.261 0.799,0.261 0.351,0 0.638,0.11 0.638,0.244 0,0.134 0.265,0.318 0.589,0.409 0.631,0.176 1.615,0.573 2.349,0.946 0.25,0.127 0.618,0.231 0.818,0.231 0.2,0 0.51,0.177 0.689,0.392 0.179,0.216 0.605,0.392 0.947,0.392 0.342,0 0.622,0.118 0.622,0.262 0,0.144 0.176,0.261 0.392,0.261 0.215,0 0.392,0.118 0.392,0.262 0,0.144 0.221,0.261 0.491,0.261 0.27,0 0.637,0.177 0.816,0.392 0.179,0.216 0.488,0.393 0.686,0.393 0.198,0 0.36,0.117 0.36,0.261 0,0.144 0.223,0.261 0.495,0.261 0.273,0 0.773,0.293 1.111,0.65 0.339,0.356 0.796,0.651 1.016,0.653 0.22,0.003 0.569,0.24 0.777,0.527 0.207,0.288 0.522,0.523 0.699,0.523 0.177,0 0.599,0.277 0.937,0.615 0.339,0.339 0.739,0.662 0.891,0.719 0.308,0.116 1.806,1.297 3.034,2.392 0.444,0.395 0.912,0.719 1.04,0.719 0.324,0 0.98,0.688 0.98,1.027 0,0.154 0.123,0.28 0.274,0.28 0.354,0 1.556,1.202 1.556,1.557 0,0.15 0.126,0.273 0.28,0.273 0.305,0 1.027,0.644 1.027,0.915 0,0.218 0.697,0.915 0.915,0.915 0.31,0 0.916,0.743 0.916,1.121 0,0.206 0.294,0.595 0.653,0.865 0.36,0.27 0.654,0.597 0.654,0.727 0,0.129 0.411,0.587 0.915,1.017 0.503,0.429 0.915,0.959 0.915,1.175 0,0.217 0.294,0.667 0.653,1 0.36,0.334 0.654,0.788 0.654,1.011 0,0.222 0.118,0.404 0.261,0.404 0.144,0 0.262,0.149 0.262,0.33 0,0.181 0.294,0.647 0.653,1.034 0.36,0.388 0.654,0.864 0.654,1.059 0,0.195 0.221,0.592 0.491,0.882 0.27,0.289 0.572,0.782 0.671,1.095 0.099,0.312 0.29,0.568 0.424,0.568 0.134,0 0.244,0.294 0.244,0.653 0,0.36 0.118,0.654 0.262,0.654 0.143,0 0.261,0.223 0.261,0.495 0,0.272 0.176,0.562 0.392,0.645 0.216,0.083 0.392,0.39 0.392,0.682 0,0.292 0.118,0.531 0.262,0.531 0.144,0 0.261,0.294 0.261,0.653 0,0.36 0.118,0.654 0.262,0.654 0.143,0 0.261,0.347 0.261,0.771 0,0.459 0.185,0.88 0.458,1.038 0.253,0.148 0.312,0.27 0.13,0.275 -0.495,0.012 -0.39,0.736 0.131,0.902 0.287,0.092 0.479,0.449 0.515,0.962 0.031,0.448 0.167,0.949 0.302,1.113 0.135,0.164 0.328,0.857 0.43,1.54 0.102,0.683 0.289,1.242 0.417,1.242 0.127,0 0.231,0.405 0.231,0.9 0,0.495 0.129,0.979 0.286,1.076 0.158,0.097 0.232,0.464 0.165,0.815 -0.07,0.364 0.045,0.805 0.268,1.028 0.29,0.29 0.349,0.709 0.227,1.626 -0.139,1.048 -0.084,1.293 0.36,1.613 0.474,0.341 0.524,0.675 0.524,3.457 0,1.879 0.102,3.08 0.262,3.08 0.379,0 0.324,3.561 -0.065,4.221 -0.262,0.442 -0.262,0.577 0,0.671 0.378,0.137 0.446,0.86 0.081,0.86 -0.135,0 -0.248,0.968 -0.25,2.153 -0.003,1.258 -0.118,2.191 -0.278,2.244 -0.348,0.116 -0.359,1.093 -0.011,1.093 0.144,0 0.261,0.294 0.261,0.653 0,0.36 -0.102,0.654 -0.227,0.654 -0.126,0 -0.305,0.583 -0.4,1.296 -0.095,0.713 -0.286,1.367 -0.426,1.454 -0.139,0.086 -0.254,0.914 -0.254,1.841 0,0.948 -0.114,1.683 -0.261,1.683 -0.144,0 -0.262,0.271 -0.262,0.602 0,0.33 -0.147,0.757 -0.326,0.947 -0.26,0.276 -0.26,0.371 -0.003,0.466 0.245,0.09 0.229,0.215 -0.065,0.509 -0.214,0.214 -0.39,0.668 -0.39,1.009 0,0.341 -0.118,0.692 -0.261,0.781 -0.144,0.089 -0.262,0.501 -0.262,0.915 0,0.415 -0.117,0.826 -0.261,0.915 -0.144,0.089 -0.262,0.436 -0.262,0.772 0,0.336 -0.176,0.678 -0.392,0.761 -0.215,0.082 -0.392,0.448 -0.392,0.812 0,0.364 -0.118,0.662 -0.261,0.662 -0.144,0 -0.262,0.294 -0.262,0.653 0,0.36 -0.117,0.654 -0.261,0.654 -0.144,0 -0.262,0.294 -0.262,0.654 0,0.359 -0.109,0.653 -0.242,0.653 -0.279,0 -1.065,1.477 -1.065,2.001 0,0.194 -0.105,0.352 -0.233,0.352 -0.128,0 -0.307,0.294 -0.397,0.654 -0.09,0.359 -0.28,0.653 -0.421,0.653 -0.141,0 -0.256,0.236 -0.256,0.523 0,0.288 -0.118,0.523 -0.262,0.523 -0.143,0 -0.261,0.167 -0.261,0.37 0,0.204 -0.088,0.41 -0.196,0.458 -0.343,0.152 -1.634,2.282 -1.634,2.696 0,0.219 -0.134,0.398 -0.298,0.398 -0.364,0 -0.99,0.787 -1.001,1.26 -0.01,0.419 -0.648,1.093 -1.035,1.093 -0.154,0 -0.28,0.15 -0.28,0.334 0,0.184 -0.236,0.504 -0.523,0.711 -0.288,0.208 -0.523,0.531 -0.523,0.72 0,0.188 -0.177,0.41 -0.392,0.493 -0.216,0.083 -0.392,0.252 -0.392,0.377 0,0.315 -6.223,6.515 -6.54,6.515 -0.142,0 -0.258,0.176 -0.258,0.392 0,0.218 -0.232,0.392 -0.523,0.392 -0.287,0 -0.523,0.118 -0.523,0.262 0,0.143 -0.156,0.261 -0.348,0.261 -0.191,0 -0.505,0.294 -0.697,0.654 -0.193,0.359 -0.507,0.653 -0.698,0.653 -0.192,0 -0.348,0.118 -0.348,0.262 0,0.144 -0.235,0.261 -0.523,0.261 -0.29,0 -0.523,0.174 -0.523,0.392 0,0.216 -0.176,0.392 -0.392,0.392 -0.216,0 -0.392,0.118 -0.392,0.262 0,0.144 -0.235,0.261 -0.523,0.261 -0.288,0 -0.523,0.118 -0.523,0.262 0,0.144 -0.176,0.261 -0.392,0.261 -0.216,0 -0.392,0.177 -0.392,0.392 0,0.218 -0.233,0.393 -0.523,0.393 -0.288,0 -0.523,0.117 -0.523,0.261 0,0.144 -0.251,0.261 -0.558,0.261 -0.307,0 -0.831,0.295 -1.164,0.654 -0.333,0.359 -0.788,0.654 -1.011,0.654 -0.222,0 -0.404,0.117 -0.404,0.261 0,0.144 -0.294,0.261 -0.654,0.261 -0.359,0 -0.653,0.116 -0.653,0.257 0,0.141 -0.295,0.33 -0.654,0.42 -0.36,0.091 -0.654,0.269 -0.654,0.398 0,0.128 -0.235,0.233 -0.523,0.233 -0.287,0 -0.522,0.131 -0.522,0.291 0,0.175 -0.314,0.245 -0.788,0.175 -0.669,-0.098 -0.765,-0.043 -0.636,0.363 0.128,0.402 0.004,0.478 -0.781,0.478 -0.513,0 -0.933,0.117 -0.933,0.261 0,0.144 -0.346,0.262 -0.769,0.262 -0.422,0 -0.841,0.117 -0.93,0.261 -0.089,0.144 -0.511,0.262 -0.939,0.262 -0.449,0 -0.84,0.165 -0.927,0.392 -0.17,0.442 -1.542,0.538 -1.797,0.126 -0.244,-0.394 -0.652,-0.042 -0.478,0.413 0.125,0.325 -0.033,0.362 -0.922,0.22 -0.854,-0.136 -1.105,-0.085 -1.235,0.254 -0.115,0.298 -0.488,0.425 -1.253,0.425 -0.6,0 -1.362,0.19 -1.694,0.422 -0.444,0.311 -0.68,0.345 -0.895,0.131 -0.426,-0.426 -1.014,-0.349 -1.755,0.231 -0.683,0.534 -2.615,0.727 -2.615,0.261 0,-0.143 -0.529,-0.261 -1.176,-0.261 -0.647,0 -1.177,0.118 -1.177,0.261 0,0.165 -1.743,0.262 -4.706,0.262 -2.963,0 -4.705,-0.097 -4.705,-0.262 0,-0.143 -0.346,-0.261 -0.769,-0.261 -0.423,0 -0.842,0.118 -0.931,0.261 -0.306,0.495 -1.438,0.303 -1.438,-0.243 0,-0.689 -1.035,-1.005 -1.447,-0.442 -0.415,0.569 -1.477,0.567 -1.375,-0.002 0.065,-0.357 -0.205,-0.428 -1.688,-0.441 -1.18,-0.011 -1.764,-0.119 -1.764,-0.327 0,-0.213 -0.368,-0.269 -1.177,-0.178 -0.778,0.088 -1.176,0.033 -1.176,-0.163 0,-0.162 -0.188,-0.295 -0.416,-0.295 -0.229,0 -0.71,-0.231 -1.068,-0.512 -0.457,-0.36 -0.878,-0.467 -1.413,-0.36 -0.482,0.097 -0.763,0.044 -0.763,-0.141 0,-0.162 -0.229,-0.294 -0.508,-0.294 -0.279,0 -0.58,-0.118 -0.669,-0.262 -0.089,-0.144 -0.511,-0.261 -0.938,-0.261 -0.45,0 -0.841,-0.165 -0.928,-0.392 -0.083,-0.216 -0.373,-0.392 -0.645,-0.392 -0.273,0 -0.495,-0.118 -0.495,-0.262 0,-0.144 -0.299,-0.261 -0.665,-0.261 -0.62,0 -0.864,-0.133 -1.809,-0.981 -0.201,-0.179 -0.608,-0.327 -0.906,-0.327 -0.298,0 -0.542,-0.117 -0.542,-0.261 0,-0.144 -0.223,-0.261 -0.495,-0.261 -0.272,0 -0.562,-0.177 -0.645,-0.393 -0.083,-0.215 -0.39,-0.392 -0.682,-0.392 -0.292,0 -0.531,-0.117 -0.531,-0.261 0,-0.144 -0.308,-0.262 -0.685,-0.262 -0.544,0 -0.626,-0.072 -0.395,-0.35 0.365,-0.44 0.065,-0.785 -0.369,-0.425 -0.226,0.188 -0.365,0.149 -0.473,-0.133 -0.084,-0.219 -0.343,-0.399 -0.575,-0.399 -0.232,0 -0.822,-0.412 -1.311,-0.915 -0.489,-0.503 -1.067,-0.915 -1.285,-0.915 -0.218,0 -0.397,-0.117 -0.397,-0.261 0,-0.144 -0.123,-0.262 -0.273,-0.262 -0.256,0 -0.552,-0.204 -1.417,-0.98 -0.2,-0.18 -0.418,-0.327 -0.484,-0.327 -0.066,0 -0.852,-0.706 -1.748,-1.569 -0.895,-0.862 -1.74,-1.568 -1.878,-1.568 -0.337,0 -0.855,-0.545 -1.079,-1.136 -0.1,-0.265 -0.417,-0.544 -0.704,-0.619 -0.287,-0.075 -0.526,-0.27 -0.53,-0.433 -0.005,-0.162 -0.535,-0.877 -1.177,-1.587 -0.642,-0.71 -1.168,-1.386 -1.168,-1.503 0,-0.117 -0.126,-0.212 -0.28,-0.212 -0.362,0 -1.027,-0.665 -1.027,-1.027 0,-0.155 -0.117,-0.281 -0.261,-0.281 -0.144,0 -0.262,-0.18 -0.262,-0.4 0,-0.22 -0.176,-0.468 -0.392,-0.551 -0.215,-0.083 -0.392,-0.288 -0.392,-0.457 0,-0.168 -0.235,-0.476 -0.523,-0.683 -0.287,-0.207 -0.523,-0.57 -0.523,-0.805 0,-0.236 -0.294,-0.65 -0.653,-0.92 -0.36,-0.27 -0.654,-0.706 -0.654,-0.97 0,-0.527 -0.586,-1.227 -1.027,-1.227 -0.154,0 -0.28,-0.241 -0.28,-0.535 0,-0.673 -0.712,-2.079 -1.053,-2.079 -0.14,0 -0.254,-0.235 -0.254,-0.523 0,-0.287 -0.118,-0.523 -0.262,-0.523 -0.143,0 -0.261,-0.158 -0.261,-0.352 0,-0.449 -0.741,-1.943 -1.062,-2.142 -0.135,-0.083 -0.245,-0.438 -0.245,-0.789 0,-0.351 -0.118,-0.638 -0.262,-0.638 -0.144,0 -0.261,-0.236 -0.261,-0.523 0,-0.288 -0.103,-0.523 -0.228,-0.523 -0.125,0 -0.309,-0.609 -0.407,-1.354 -0.099,-0.744 -0.408,-1.674 -0.688,-2.066 -0.279,-0.392 -0.507,-0.953 -0.507,-1.246 0,-0.292 -0.129,-0.612 -0.287,-0.709 -0.157,-0.097 -0.234,-0.532 -0.171,-0.966 0.087,-0.593 0.002,-0.818 -0.343,-0.908 -0.357,-0.093 -0.454,-0.386 -0.44,-1.323 0.01,-0.697 -0.11,-1.247 -0.286,-1.305 -0.179,-0.06 -0.303,-0.662 -0.303,-1.465 0,-0.75 -0.128,-1.491 -0.283,-1.647 -0.203,-0.203 -0.188,-0.435 0.054,-0.822 0.284,-0.455 0.267,-0.616 -0.11,-1.032 -0.245,-0.271 -0.446,-0.682 -0.446,-0.914 0,-0.232 -0.117,-0.494 -0.261,-0.583 -0.144,-0.089 -0.262,-0.442 -0.262,-0.784 0,-0.343 0.118,-0.696 0.262,-0.785 0.144,-0.088 0.261,-0.684 0.261,-1.322 0,-0.639 -0.117,-1.161 -0.261,-1.161 -0.404,0 -0.34,-4.634 0.065,-4.782 0.262,-0.096 0.262,-0.189 0,-0.467 -0.416,-0.44 -0.453,-4.163 -0.042,-4.163 0.171,0 0.262,-0.448 0.227,-1.111 -0.09,-1.693 -0.023,-2.026 0.404,-2.026 0.519,0 0.514,-1.142 -0.007,-1.574 -0.355,-0.295 -0.348,-0.387 0.064,-0.842 0.261,-0.289 0.424,-0.8 0.375,-1.177 -0.048,-0.367 0.025,-0.914 0.162,-1.217 0.138,-0.302 0.394,-0.856 0.57,-1.229 0.176,-0.374 0.29,-0.903 0.254,-1.177 -0.091,-0.69 0.291,-2.433 0.572,-2.606 0.127,-0.079 0.232,-0.663 0.232,-1.297 0,-0.916 0.08,-1.122 0.391,-1.002 0.314,0.12 0.359,-0.009 0.229,-0.662 -0.129,-0.642 -0.074,-0.812 0.262,-0.812 0.311,0 0.425,-0.245 0.425,-0.915 0,-0.503 0.118,-0.915 0.261,-0.915 0.144,0 0.262,-0.235 0.262,-0.523 0,-0.288 0.117,-0.523 0.261,-0.523 0.144,0 0.262,-0.221 0.262,-0.491 0,-0.27 0.176,-0.637 0.392,-0.816 0.216,-0.179 0.392,-0.546 0.392,-0.816 0,-0.27 0.088,-0.492 0.196,-0.493 0.265,-0.003 0.85,-1.296 0.85,-1.88 0,-0.259 0.176,-0.471 0.392,-0.471 0.216,0 0.392,-0.177 0.392,-0.392 0,-0.216 0.118,-0.392 0.261,-0.392 0.144,0 0.262,-0.167 0.262,-0.371 0,-0.467 0.848,-1.979 1.111,-1.981 0.108,-0.001 0.196,-0.178 0.196,-0.394 0,-0.215 0.118,-0.392 0.262,-0.392 0.143,0 0.261,-0.235 0.261,-0.523 0,-0.29 0.174,-0.522 0.392,-0.522 0.216,0 0.392,-0.177 0.392,-0.393 0,-0.215 0.118,-0.392 0.262,-0.392 0.144,0 0.261,-0.235 0.261,-0.523 0,-0.287 0.118,-0.523 0.262,-0.523 0.143,0 0.261,-0.176 0.261,-0.392 0,-0.215 0.157,-0.392 0.348,-0.392 0.191,0 0.505,-0.294 0.698,-0.653 0.192,-0.36 0.447,-0.654 0.567,-0.654 0.119,0 0.217,-0.235 0.217,-0.523 0,-0.288 0.126,-0.523 0.28,-0.523 0.305,0 1.027,-0.643 1.027,-0.915 0,-0.252 0.713,-0.915 0.983,-0.915 0.13,0 0.387,-0.281 0.571,-0.625 0.183,-0.343 0.615,-0.775 0.959,-0.959 0.343,-0.184 0.625,-0.426 0.625,-0.539 0,-0.225 2.556,-2.844 2.776,-2.844 0.234,0 0.884,-0.734 0.884,-0.997 0,-0.138 0.429,-0.454 0.954,-0.703 0.524,-0.249 1.285,-0.792 1.69,-1.207 0.405,-0.414 0.909,-0.753 1.119,-0.753 0.21,0 0.613,-0.294 0.896,-0.654 0.283,-0.359 0.703,-0.654 0.934,-0.654 0.231,0 0.42,-0.117 0.42,-0.261 0,-0.144 0.176,-0.261 0.392,-0.261 0.216,0 0.392,-0.177 0.392,-0.393 0,-0.215 0.206,-0.394 0.458,-0.398 0.251,-0.003 0.751,-0.235 1.111,-0.517 0.359,-0.281 0.859,-0.513 1.111,-0.517 0.251,-0.003 0.457,-0.182 0.457,-0.398 0,-0.244 0.247,-0.392 0.654,-0.392 0.359,0 0.654,-0.117 0.654,-0.261 0,-0.144 0.235,-0.262 0.522,-0.262 0.288,0 0.523,-0.117 0.523,-0.261 0,-0.144 0.239,-0.262 0.531,-0.262 0.292,0 0.599,-0.176 0.682,-0.392 0.083,-0.215 0.432,-0.392 0.776,-0.392 0.344,0 0.626,-0.117 0.626,-0.261 0,-0.144 0.287,-0.262 0.638,-0.262 0.351,0 0.711,-0.117 0.8,-0.261 0.088,-0.144 0.381,-0.262 0.65,-0.262 0.269,0 0.665,-0.176 0.881,-0.392 0.216,-0.215 0.688,-0.392 1.049,-0.392 0.361,0 0.729,-0.118 0.818,-0.261 0.089,-0.144 0.502,-0.262 0.918,-0.262 0.415,0 0.858,-0.182 0.983,-0.405 0.166,-0.297 0.66,-0.408 1.84,-0.414 0.888,-0.004 1.681,-0.115 1.763,-0.248 0.081,-0.132 0.494,-0.24 0.917,-0.24 0.423,0 0.769,-0.118 0.769,-0.261 0,-0.144 0.441,-0.263 0.98,-0.263 0.539,-0.001 1.318,-0.178 1.729,-0.393 0.48,-0.25 1.491,-0.39 2.811,-0.39 1.464,0 2.067,-0.095 2.082,-0.327 0.017,-0.261 0.047,-0.261 0.153,0 0.072,0.18 0.475,0.327 0.894,0.327 m 42.331,26.405 c 0,0.144 -0.522,0.262 -1.161,0.262 -0.638,0 -1.234,0.117 -1.322,0.261 -0.089,0.144 -0.512,0.261 -0.939,0.261 -0.45,0 -0.841,0.166 -0.928,0.393 -0.102,0.266 -0.519,0.392 -1.299,0.392 -0.631,0 -1.148,0.117 -1.148,0.261 0,0.144 -0.412,0.262 -0.915,0.262 -0.503,0 -0.915,0.117 -0.915,0.261 0,0.144 -0.286,0.261 -0.635,0.261 -0.349,0 -0.812,0.177 -1.027,0.393 -0.216,0.215 -0.518,0.392 -0.673,0.392 -0.154,0 -0.28,0.088 -0.281,0.196 -0.001,0.108 -0.413,0.476 -0.915,0.818 -0.503,0.342 -0.914,0.783 -0.914,0.98 0,0.197 -0.117,0.359 -0.261,0.359 -0.144,0 -0.262,0.239 -0.262,0.531 0,0.292 -0.176,0.599 -0.392,0.681 -0.215,0.083 -0.392,0.432 -0.392,0.776 0,0.345 -0.118,0.626 -0.261,0.626 -0.153,0 -0.262,0.872 -0.262,2.092 0,1.22 0.109,2.091 0.262,2.091 0.143,0 0.261,0.357 0.261,0.793 0,0.463 0.163,0.855 0.392,0.943 0.223,0.085 0.392,0.475 0.392,0.903 0,1.574 3.556,2.803 4.089,1.413 0.093,-0.242 0.49,-0.392 1.037,-0.392 0.488,0 0.888,-0.117 0.888,-0.261 0,-0.144 0.176,-0.262 0.392,-0.262 0.315,0 0.392,-0.403 0.392,-2.059 0,-1.512 -0.104,-2.146 -0.392,-2.385 -0.805,-0.668 -0.014,-1.83 1.247,-1.83 0.375,0 0.755,-0.118 0.844,-0.262 0.089,-0.143 0.501,-0.261 0.915,-0.261 0.415,0 0.826,-0.118 0.915,-0.261 0.089,-0.144 0.558,-0.262 1.043,-0.262 0.484,0 1.057,-0.176 1.273,-0.392 0.216,-0.216 0.753,-0.392 1.195,-0.392 0.442,0 0.803,-0.118 0.803,-0.262 0,-0.143 0.126,-0.261 0.28,-0.261 0.527,0 1.027,0.746 1.027,1.531 0,0.432 0.177,0.961 0.392,1.177 0.216,0.215 0.392,0.629 0.392,0.918 0,0.289 0.118,0.599 0.262,0.688 0.144,0.088 0.261,0.677 0.261,1.307 0,0.63 0.118,1.218 0.262,1.307 0.144,0.089 0.261,0.495 0.261,0.902 0,0.418 0.171,0.807 0.392,0.892 0.619,0.237 0.519,1.735 -0.115,1.735 -0.279,0 -0.572,0.105 -0.651,0.232 -0.078,0.128 -0.556,0.31 -1.061,0.404 -0.505,0.095 -0.918,0.285 -0.918,0.422 0,0.137 -0.463,0.25 -1.03,0.25 -0.567,0 -1.103,0.117 -1.192,0.261 -0.089,0.144 -0.511,0.261 -0.939,0.261 -0.449,0 -0.84,0.166 -0.927,0.393 -0.098,0.255 -0.505,0.392 -1.168,0.392 -0.56,0 -1.018,0.117 -1.018,0.261 0,0.144 -0.206,0.265 -0.458,0.27 -0.565,0.01 -1.372,0.599 -1.372,1.001 0,0.164 -0.175,0.298 -0.389,0.298 -0.569,0 -1.441,0.827 -1.441,1.365 0,0.256 -0.118,0.465 -0.262,0.465 -0.144,0 -0.261,0.223 -0.261,0.495 0,0.272 -0.177,0.562 -0.392,0.645 -0.32,0.123 -0.393,0.756 -0.393,3.427 0,2.738 0.065,3.276 0.393,3.276 0.273,0 0.392,0.276 0.392,0.915 0,0.503 0.117,0.915 0.261,0.915 0.144,0 0.262,0.523 0.262,1.161 0,0.639 0.117,1.234 0.261,1.323 0.144,0.089 0.262,0.511 0.262,0.938 0,0.45 0.165,0.841 0.392,0.928 0.254,0.098 0.392,0.503 0.392,1.153 0,0.551 0.117,1.075 0.261,1.164 0.144,0.089 0.262,0.566 0.262,1.061 0,0.495 0.117,0.9 0.261,0.9 0.144,0 0.262,0.285 0.262,0.635 0,0.349 0.176,0.811 0.392,1.027 0.234,0.234 0.392,0.873 0.392,1.587 0,0.657 0.118,1.195 0.261,1.195 0.144,0 0.262,0.289 0.262,0.642 0,0.353 0.294,0.936 0.653,1.295 0.36,0.36 0.654,0.777 0.654,0.927 0,0.15 0.294,0.273 0.654,0.273 0.359,0 0.653,0.118 0.653,0.262 0,0.144 0.464,0.261 1.03,0.261 0.567,0 1.103,-0.117 1.192,-0.261 0.089,-0.144 0.512,-0.262 0.939,-0.262 0.45,0 0.841,-0.165 0.928,-0.392 0.102,-0.266 0.519,-0.392 1.299,-0.392 0.631,0 1.148,-0.118 1.148,-0.261 0,-0.144 0.412,-0.262 0.915,-0.262 0.503,0 0.915,-0.118 0.915,-0.261 0,-0.144 0.456,-0.262 1.014,-0.262 0.582,0 1.152,-0.167 1.339,-0.392 0.179,-0.216 0.664,-0.392 1.078,-0.392 0.414,0 0.752,-0.118 0.752,-0.262 0,-0.143 0.471,-0.261 1.046,-0.261 0.575,0 1.046,-0.118 1.046,-0.261 0,-0.144 0.399,-0.262 0.887,-0.262 0.547,0 0.944,-0.15 1.037,-0.392 0.099,-0.258 0.507,-0.392 1.189,-0.392 0.571,0 1.112,-0.118 1.2,-0.262 0.089,-0.143 0.331,-0.261 0.539,-0.261 0.494,0 1.422,-0.938 1.422,-1.438 0,-0.216 0.118,-0.392 0.262,-0.392 0.143,0 0.261,-0.64 0.261,-1.423 0,-0.782 -0.118,-1.495 -0.261,-1.584 -0.144,-0.089 -0.262,-0.509 -0.262,-0.934 0,-0.424 -0.098,-0.976 -0.217,-1.226 -0.119,-0.25 -0.414,-0.846 -0.654,-1.325 -0.24,-0.479 -0.436,-1.266 -0.436,-1.749 0,-0.483 -0.118,-0.951 -0.261,-1.04 -0.144,-0.089 -0.262,-0.39 -0.262,-0.669 0,-0.279 -0.126,-0.508 -0.28,-0.508 -0.154,0 -0.457,-0.176 -0.672,-0.392 -0.216,-0.215 -0.787,-0.392 -1.27,-0.392 -0.483,0 -1.054,0.177 -1.27,0.392 -0.216,0.216 -0.753,0.392 -1.195,0.392 -0.442,0 -0.803,0.118 -0.803,0.262 0,0.144 -0.134,0.261 -0.298,0.261 -0.827,0 -1.485,3.335 -0.748,3.791 0.708,0.438 0.29,2.484 -0.507,2.484 -0.423,0 -0.842,0.117 -0.931,0.261 -0.089,0.144 -0.566,0.262 -1.061,0.262 -0.495,0 -0.9,0.117 -0.9,0.261 0,0.393 -1.03,0.314 -1.456,-0.112 -0.206,-0.205 -0.374,-0.61 -0.374,-0.9 0,-0.289 -0.117,-0.598 -0.261,-0.687 -0.144,-0.089 -0.262,-0.478 -0.263,-0.865 -0.001,-0.387 -0.177,-1.041 -0.392,-1.453 -0.215,-0.412 -0.391,-1.022 -0.391,-1.357 0,-0.334 -0.117,-0.681 -0.261,-0.77 -0.144,-0.089 -0.262,-0.511 -0.262,-0.938 0,-0.45 -0.165,-0.841 -0.392,-0.928 -0.265,-0.102 -0.392,-0.518 -0.392,-1.284 0,-0.623 -0.118,-1.205 -0.261,-1.294 -0.144,-0.089 -0.262,-0.449 -0.262,-0.8 0,-0.351 -0.118,-0.638 -0.261,-0.638 -0.144,0 -0.262,-0.412 -0.262,-0.915 0,-0.796 0.083,-0.915 0.638,-0.915 0.351,0 0.711,-0.118 0.8,-0.262 0.089,-0.143 0.57,-0.261 1.07,-0.261 0.565,0 0.964,-0.148 1.058,-0.392 0.093,-0.242 0.49,-0.392 1.037,-0.392 0.488,0 0.887,-0.118 0.887,-0.262 0,-0.144 0.206,-0.265 0.458,-0.27 0.489,-0.008 1.373,-0.58 1.373,-0.888 0,-0.256 0.698,-0.933 0.961,-0.934 0.306,0 1.653,-2.194 1.653,-2.691 0,-0.228 0.118,-0.487 0.261,-0.576 0.32,-0.198 0.352,-4.228 0.035,-4.423 -0.125,-0.078 -0.303,-0.614 -0.396,-1.192 -0.092,-0.579 -0.284,-1.052 -0.426,-1.052 -0.142,0 -0.258,-0.412 -0.258,-0.915 0,-0.503 -0.118,-0.915 -0.262,-0.915 -0.144,0 -0.261,-0.529 -0.261,-1.176 0,-0.872 -0.102,-1.177 -0.392,-1.177 -0.274,0 -0.393,-0.276 -0.393,-0.915 0,-0.503 -0.117,-0.915 -0.261,-0.915 -0.144,0 -0.261,-0.412 -0.261,-0.915 0,-0.503 -0.118,-0.915 -0.262,-0.915 -0.144,0 -0.261,-0.294 -0.261,-0.654 0,-0.406 -0.148,-0.653 -0.393,-0.653 -0.215,0 -0.392,-0.123 -0.392,-0.274 0,-0.339 -1.195,-1.556 -1.528,-1.556 -0.135,0 -0.314,-0.177 -0.396,-0.392 -0.083,-0.216 -0.39,-0.393 -0.682,-0.393 -0.292,0 -0.531,-0.117 -0.531,-0.261 0,-0.144 -0.412,-0.261 -0.915,-0.261 -0.503,0 -0.915,-0.118 -0.915,-0.262 0,-0.144 -0.647,-0.261 -1.438,-0.261 -0.791,0 -1.438,0.117 -1.438,0.261 m -26.554,7.968 c -0.278,0.21 -1.063,0.385 -1.746,0.39 -0.683,0.004 -1.242,0.126 -1.242,0.27 0,0.143 -0.471,0.261 -1.046,0.261 -0.575,0 -1.046,0.118 -1.046,0.261 0,0.144 -0.356,0.262 -0.792,0.262 -0.464,0 -0.855,0.163 -0.943,0.392 -0.102,0.266 -0.52,0.392 -1.299,0.392 -0.632,0 -1.149,0.118 -1.149,0.262 0,0.143 -0.358,0.261 -0.796,0.261 -0.486,0 -1.069,0.254 -1.5,0.654 -0.388,0.359 -0.803,0.653 -0.924,0.653 -0.385,0 -1.747,1.513 -1.747,1.941 0,0.227 -0.118,0.412 -0.262,0.412 -0.143,0 -0.261,0.213 -0.261,0.473 0,0.26 -0.173,0.701 -0.384,0.98 -0.438,0.579 -0.576,5.345 -0.155,5.345 0.135,0 0.322,0.512 0.416,1.137 0.273,1.817 1.061,2.523 2.818,2.523 0.801,0 1.53,-0.118 1.619,-0.262 0.089,-0.144 0.577,-0.261 1.084,-0.261 1.606,0 2.934,-3.55 1.53,-4.089 -0.275,-0.105 -0.392,-0.533 -0.392,-1.429 v -1.28 h 1.03 c 0.567,0 1.103,-0.117 1.192,-0.261 0.089,-0.144 0.57,-0.261 1.07,-0.261 0.565,0 0.964,-0.148 1.058,-0.393 0.093,-0.242 0.49,-0.392 1.037,-0.392 0.488,0 0.887,-0.117 0.887,-0.261 0,-0.144 0.53,-0.262 1.177,-0.262 0.762,0 1.18,-0.115 1.186,-0.326 0.019,-0.663 1.295,1.267 1.296,1.96 0.001,0.465 0.141,0.719 0.394,0.719 0.295,0 0.392,0.318 0.392,1.292 0,0.711 0.118,1.365 0.261,1.453 0.144,0.089 0.262,0.508 0.262,0.931 0,0.423 0.117,0.769 0.261,0.769 0.144,0 0.262,0.403 0.262,0.896 0,0.493 0.176,1.073 0.392,1.289 0.216,0.215 0.392,0.518 0.392,0.672 0,0.154 -0.176,0.28 -0.392,0.28 -0.216,0 -0.392,0.118 -0.392,0.261 0,0.144 -0.53,0.262 -1.177,0.262 -0.647,0 -1.176,0.112 -1.176,0.249 0,0.138 -0.412,0.327 -0.915,0.422 -0.504,0.094 -0.915,0.276 -0.915,0.404 0,0.128 -0.53,0.232 -1.177,0.232 -0.647,0 -1.176,0.118 -1.176,0.261 0,0.144 -0.416,0.262 -0.924,0.262 -0.579,0 -0.979,0.146 -1.073,0.392 -0.083,0.216 -0.373,0.392 -0.646,0.392 -0.272,0 -0.495,0.118 -0.495,0.262 0,0.143 -0.243,0.261 -0.541,0.261 -0.579,0 -1.289,0.566 -1.289,1.027 0,0.154 -0.176,0.28 -0.392,0.28 -0.215,0 -0.392,0.177 -0.392,0.392 0,0.216 -0.118,0.393 -0.261,0.393 -0.144,0 -0.262,0.185 -0.262,0.41 0,0.226 -0.176,0.588 -0.392,0.803 -0.216,0.216 -0.392,0.613 -0.392,0.881 0,0.269 -0.118,0.562 -0.262,0.651 -0.143,0.089 -0.261,1.03 -0.261,2.091 0,1.062 0.118,2.003 0.261,2.092 0.144,0.089 0.262,0.44 0.262,0.781 0,0.341 0.176,0.796 0.392,1.011 0.22,0.221 0.392,0.859 0.392,1.457 0,0.585 0.118,1.064 0.262,1.064 0.143,0 0.261,0.405 0.261,0.9 0,0.495 0.104,0.964 0.232,1.043 0.127,0.079 0.309,0.556 0.404,1.061 0.095,0.505 0.284,0.918 0.422,0.918 0.137,0 0.249,0.529 0.249,1.176 0,0.648 0.118,1.177 0.262,1.177 0.144,0 0.261,0.286 0.261,0.635 0,0.349 0.177,0.811 0.392,1.027 0.219,0.218 0.392,0.857 0.392,1.441 0,0.577 0.118,1.122 0.262,1.211 0.144,0.089 0.261,0.5 0.261,0.915 0,0.414 0.118,0.826 0.262,0.915 0.144,0.089 0.261,0.449 0.261,0.8 0,0.35 0.116,0.638 0.257,0.638 0.141,0 0.681,0.411 1.199,0.915 0.962,0.934 2.968,1.322 3.381,0.653 0.089,-0.143 0.44,-0.261 0.781,-0.261 0.341,0 0.796,-0.177 1.012,-0.392 0.215,-0.216 0.753,-0.392 1.195,-0.392 0.441,0 0.803,-0.118 0.803,-0.262 0,-0.144 0.533,-0.261 1.184,-0.261 0.812,0 1.232,-0.124 1.336,-0.392 0.092,-0.242 0.49,-0.393 1.037,-0.393 0.488,0 0.887,-0.117 0.887,-0.261 0,-0.144 0.53,-0.262 1.177,-0.262 0.647,0 1.176,-0.117 1.176,-0.261 0,-0.144 0.412,-0.261 0.915,-0.261 0.639,0 0.915,-0.119 0.915,-0.393 0,-0.29 0.305,-0.392 1.177,-0.392 0.647,0 1.176,-0.117 1.176,-0.261 0,-0.144 0.407,-0.262 0.904,-0.262 0.698,0 1.156,-0.239 2.008,-1.05 l 1.105,-1.051 -0.031,-2.253 c -0.017,-1.239 -0.156,-2.378 -0.309,-2.531 -0.153,-0.153 -0.278,-0.599 -0.278,-0.991 0,-0.393 -0.177,-0.89 -0.392,-1.106 -0.216,-0.216 -0.393,-0.753 -0.393,-1.195 0,-0.442 -0.117,-0.803 -0.261,-0.803 -0.144,0 -0.261,-0.399 -0.261,-0.887 0,-0.727 -0.118,-0.916 -0.654,-1.05 -0.36,-0.091 -0.654,-0.28 -0.654,-0.421 0,-0.141 -0.529,-0.256 -1.176,-0.256 -0.647,0 -1.177,0.117 -1.177,0.261 0,0.144 -0.285,0.262 -0.634,0.262 -0.35,0 -0.812,0.176 -1.028,0.392 -0.215,0.215 -0.635,0.392 -0.933,0.392 -0.597,0 -0.857,4.48 -0.28,4.836 0.476,0.295 0.294,1.177 -0.243,1.177 -0.277,0 -0.681,0.176 -0.897,0.392 -0.215,0.216 -0.746,0.392 -1.179,0.392 -0.433,0 -0.86,0.118 -0.949,0.262 -0.424,0.685 -1.961,0.287 -1.961,-0.508 0,-0.423 -0.118,-0.841 -0.262,-0.93 -0.143,-0.089 -0.261,-0.441 -0.261,-0.781 0,-0.341 -0.176,-0.796 -0.392,-1.012 -0.22,-0.22 -0.392,-0.859 -0.392,-1.457 0,-0.585 -0.118,-1.064 -0.262,-1.064 -0.144,0 -0.261,-0.412 -0.261,-0.915 0,-0.503 -0.118,-0.915 -0.262,-0.915 -0.143,0 -0.262,-0.324 -0.263,-0.719 -0.001,-0.395 -0.177,-1.056 -0.392,-1.468 -0.215,-0.412 -0.39,-1.088 -0.39,-1.503 0,-0.415 -0.118,-0.754 -0.262,-0.754 -0.144,0 -0.261,-0.412 -0.261,-0.916 0,-0.745 0.098,-0.915 0.531,-0.915 0.292,0 0.599,-0.176 0.681,-0.392 0.098,-0.254 0.503,-0.392 1.153,-0.392 0.552,0 1.075,-0.118 1.164,-0.261 0.089,-0.144 0.516,-0.262 0.949,-0.262 0.788,0 1.535,-0.5 1.535,-1.027 0,-0.154 0.249,-0.28 0.553,-0.28 0.669,0 2.584,-1.845 2.584,-2.489 0,-0.253 0.17,-0.59 0.378,-0.75 0.627,-0.482 0.64,-6.686 0.014,-7.312 -0.215,-0.216 -0.392,-0.688 -0.392,-1.049 0,-0.361 -0.118,-0.729 -0.261,-0.818 -0.144,-0.089 -0.262,-0.56 -0.262,-1.046 0,-0.486 -0.117,-0.957 -0.261,-1.046 -0.144,-0.089 -0.262,-0.493 -0.262,-0.898 0,-0.405 -0.176,-0.884 -0.392,-1.063 -0.216,-0.179 -0.392,-0.664 -0.392,-1.077 0,-0.414 -0.118,-0.753 -0.261,-0.753 -0.144,0 -0.262,-0.294 -0.262,-0.653 0,-0.407 -0.148,-0.654 -0.392,-0.654 -0.224,0 -0.392,-0.235 -0.392,-0.548 0,-0.603 -1.409,-2.066 -1.989,-2.066 -0.2,0 -0.364,-0.118 -0.364,-0.262 0,-0.143 -0.294,-0.261 -0.654,-0.261 -0.359,0 -0.653,-0.118 -0.653,-0.261 0,-0.144 -0.491,-0.262 -1.091,-0.262 -0.6,0 -1.284,-0.175 -1.521,-0.39 -0.379,-0.342 -0.493,-0.343 -0.936,-0.008 m -28.557,8.164 c -0.892,0.068 -1.438,0.24 -1.532,0.484 -0.086,0.225 -0.497,0.378 -1.016,0.378 -0.48,0 -0.945,0.117 -1.034,0.261 -0.088,0.144 -0.618,0.261 -1.176,0.261 -0.558,0 -1.088,0.118 -1.177,0.262 -0.088,0.144 -0.44,0.261 -0.781,0.261 -0.34,0 -0.796,0.177 -1.011,0.392 -0.216,0.216 -0.754,0.393 -1.195,0.393 -0.442,0 -0.803,0.117 -0.803,0.261 0,0.144 -0.172,0.261 -0.381,0.261 -0.209,0 -0.674,0.295 -1.034,0.654 -0.359,0.36 -0.754,0.654 -0.878,0.654 -0.268,0 -1.368,1.994 -1.368,2.48 0,0.187 -0.176,0.407 -0.392,0.49 -0.317,0.122 -0.392,0.727 -0.392,3.165 0,2.506 0.066,3.015 0.392,3.015 0.274,0 0.392,0.276 0.392,0.915 0,0.503 0.118,0.915 0.262,0.915 0.144,0 0.261,0.529 0.261,1.177 0,0.647 0.118,1.176 0.262,1.176 0.144,0 0.261,0.415 0.261,0.923 0,0.58 0.146,0.98 0.392,1.074 0.242,0.093 0.393,0.49 0.393,1.038 0,0.487 0.117,0.887 0.261,0.887 0.144,0 0.261,0.529 0.261,1.176 0,0.647 0.118,1.177 0.262,1.177 0.144,0 0.261,0.356 0.261,0.792 0,0.463 0.163,0.855 0.392,0.943 0.275,0.105 0.393,0.534 0.393,1.43 0,0.703 0.117,1.279 0.261,1.279 0.144,0 0.261,0.412 0.261,0.915 0,0.503 0.108,0.915 0.239,0.915 0.131,0 0.318,0.47 0.415,1.044 0.097,0.575 0.284,1.111 0.415,1.192 0.131,0.081 0.239,0.553 0.239,1.047 0,0.495 0.117,0.9 0.261,0.9 0.144,0 0.262,0.415 0.262,0.923 0,0.58 0.146,0.98 0.392,1.074 0.266,0.102 0.392,0.519 0.392,1.299 0,0.632 0.118,1.148 0.261,1.148 0.144,0 0.262,0.412 0.262,0.916 0,0.503 0.117,0.915 0.261,0.915 0.144,0 0.262,0.474 0.262,1.053 0,0.696 0.133,1.106 0.392,1.205 0.215,0.083 0.392,0.432 0.392,0.776 0,0.344 0.118,0.626 0.261,0.626 0.144,0 0.262,0.159 0.262,0.354 0,0.194 0.294,0.671 0.653,1.059 0.36,0.388 0.654,0.774 0.654,0.859 0,0.281 0.908,0.848 1.373,0.857 0.251,0.004 0.457,0.12 0.457,0.258 0,0.137 0.412,0.326 0.915,0.421 0.503,0.094 0.915,0.276 0.915,0.404 0,0.322 4.376,0.294 4.575,-0.029 0.089,-0.144 0.361,-0.262 0.604,-0.263 0.243,-0.001 0.779,-0.178 1.191,-0.393 0.412,-0.214 1.14,-0.39 1.618,-0.39 0.479,0 0.943,-0.118 1.032,-0.262 0.089,-0.143 0.448,-0.261 0.799,-0.261 0.393,0 0.639,-0.151 0.639,-0.392 0,-0.291 0.305,-0.392 1.176,-0.392 0.647,0 1.177,-0.118 1.177,-0.262 0,-0.143 0.251,-0.261 0.558,-0.261 0.307,0 0.831,-0.294 1.164,-0.654 0.333,-0.359 0.744,-0.653 0.914,-0.653 0.398,0 1.285,-1.021 1.285,-1.478 0,-0.194 0.118,-0.352 0.262,-0.352 0.143,0 0.261,-0.229 0.261,-0.508 0,-0.279 0.118,-0.58 0.261,-0.669 0.144,-0.089 0.262,-0.516 0.262,-0.949 0,-0.433 0.176,-0.964 0.392,-1.18 0.216,-0.215 0.392,-0.787 0.392,-1.27 0,-0.482 -0.176,-1.054 -0.392,-1.269 -0.216,-0.216 -0.392,-0.754 -0.392,-1.196 0,-0.441 -0.118,-0.803 -0.262,-0.803 -0.143,0 -0.261,-0.529 -0.261,-1.176 0,-0.647 -0.118,-1.176 -0.261,-1.176 -0.144,0 -0.262,-0.416 -0.262,-0.924 0,-0.579 -0.146,-0.979 -0.392,-1.073 -0.242,-0.093 -0.392,-0.491 -0.392,-1.038 0,-0.488 -0.118,-0.887 -0.262,-0.887 -0.143,0 -0.261,-0.529 -0.261,-1.177 0,-0.647 -0.118,-1.176 -0.261,-1.176 -0.144,0 -0.262,-0.339 -0.262,-0.752 0,-0.414 -0.176,-0.899 -0.392,-1.078 -0.239,-0.199 -0.392,-0.772 -0.392,-1.47 0,-0.629 -0.118,-1.144 -0.262,-1.144 -0.143,0 -0.261,-0.412 -0.261,-0.915 0,-0.64 -0.118,-0.915 -0.392,-0.915 -0.283,0 -0.392,-0.289 -0.392,-1.031 0,-0.566 -0.118,-1.103 -0.262,-1.192 -0.144,-0.089 -0.261,-0.559 -0.261,-1.045 0,-0.487 -0.118,-0.957 -0.262,-1.046 -0.144,-0.089 -0.261,-0.511 -0.261,-0.939 0,-0.449 -0.165,-0.84 -0.392,-0.927 -0.267,-0.103 -0.392,-0.52 -0.392,-1.299 0,-0.632 -0.118,-1.149 -0.262,-1.149 -0.144,0 -0.261,-0.412 -0.261,-0.915 0,-0.503 -0.118,-0.915 -0.262,-0.915 -0.144,0 -0.261,-0.403 -0.261,-0.896 0,-0.493 -0.177,-1.073 -0.392,-1.289 -0.216,-0.216 -0.393,-0.812 -0.393,-1.326 0,-0.513 -0.117,-0.933 -0.261,-0.933 -0.144,0 -0.261,-0.236 -0.261,-0.523 0,-0.288 -0.118,-0.523 -0.262,-0.523 -0.144,0 -0.261,-0.122 -0.261,-0.272 0,-0.247 -1.427,-1.729 -2.444,-2.539 -0.225,-0.179 -0.65,-0.326 -0.944,-0.326 -0.3,0 -0.534,-0.172 -0.534,-0.393 0,-0.281 -0.287,-0.392 -1.013,-0.392 -0.557,0 -1.351,-0.041 -1.765,-0.091 -0.413,-0.05 -1.375,-0.044 -2.137,0.014 m 2.554,8.247 c 0.004,0.252 0.126,0.458 0.27,0.458 0.143,0 0.261,0.403 0.261,0.896 0,0.493 0.177,1.073 0.392,1.289 0.216,0.215 0.392,0.812 0.392,1.325 0,0.514 0.118,0.934 0.262,0.934 0.144,0 0.261,0.346 0.261,0.769 0,0.423 0.118,0.842 0.262,0.93 0.143,0.089 0.261,0.558 0.261,1.043 0,0.484 0.177,1.057 0.392,1.273 0.216,0.216 0.392,0.754 0.392,1.195 0,0.442 0.118,0.803 0.262,0.803 0.144,0 0.261,0.462 0.261,1.027 0,0.565 0.177,1.204 0.392,1.42 0.216,0.215 0.393,0.69 0.393,1.056 0,0.483 -0.107,0.623 -0.393,0.513 -0.215,-0.082 -0.392,-0.264 -0.392,-0.402 0,-0.397 -0.704,-0.999 -1.167,-0.999 -0.232,0 -0.935,-0.53 -1.564,-1.177 -0.636,-0.654 -1.386,-1.176 -1.69,-1.176 -0.3,0 -0.546,-0.126 -0.546,-0.28 0,-0.305 -0.644,-1.028 -0.915,-1.028 -0.092,0 -0.332,-0.147 -0.533,-0.326 -0.784,-0.704 -1.151,-0.981 -1.298,-0.981 -0.084,0 -0.448,-0.294 -0.807,-0.653 -0.36,-0.36 -0.756,-0.654 -0.881,-0.654 -0.698,0 -3.338,-3.108 -3.499,-4.12 -0.094,-0.586 -0.318,-1.124 -0.498,-1.197 -0.196,-0.079 -0.144,-0.14 0.13,-0.152 0.252,-0.012 0.458,-0.139 0.458,-0.283 0,-0.143 0.403,-0.261 0.896,-0.261 0.493,0 1.073,-0.176 1.289,-0.392 0.215,-0.216 0.687,-0.392 1.049,-0.392 0.361,0 0.729,-0.118 0.818,-0.262 0.089,-0.144 0.618,-0.261 1.177,-0.261 0.558,0 1.087,-0.118 1.176,-0.262 0.089,-0.143 0.434,-0.261 0.768,-0.261 0.333,0 0.754,-0.178 0.934,-0.395 0.383,-0.461 1.02,0.144 1.035,0.983 m -31.234,0.196 c -0.089,0.144 -0.552,0.262 -1.029,0.262 -0.477,0 -1.014,0.176 -1.193,0.392 -0.179,0.216 -0.664,0.392 -1.078,0.392 -0.413,0 -0.752,0.118 -0.752,0.261 0,0.144 -0.529,0.262 -1.176,0.262 -0.647,0 -1.177,0.112 -1.177,0.249 0,0.138 -0.412,0.327 -0.915,0.422 -0.503,0.094 -0.915,0.276 -0.915,0.404 0,0.128 -0.206,0.236 -0.457,0.24 -0.566,0.011 -1.373,0.599 -1.373,1.001 0,0.164 -0.126,0.298 -0.28,0.298 -0.362,0 -1.027,0.665 -1.027,1.027 0,0.154 -0.118,0.28 -0.262,0.28 -0.143,0 -0.261,0.223 -0.261,0.495 0,0.273 -0.177,0.563 -0.392,0.646 -0.246,0.094 -0.392,0.494 -0.392,1.073 0,0.508 -0.118,0.924 -0.262,0.924 -0.144,0 -0.261,0.64 -0.261,1.422 0,0.783 0.117,1.495 0.261,1.584 0.144,0.089 0.262,0.57 0.262,1.07 0,0.565 0.147,0.964 0.392,1.058 0.242,0.093 0.392,0.49 0.392,1.037 0,0.488 0.118,0.888 0.261,0.888 0.144,0 0.262,0.176 0.262,0.392 0,0.311 0.377,0.392 1.83,0.392 1.452,0 1.83,-0.081 1.83,-0.392 0,-0.282 0.288,-0.392 1.028,-0.392 1.512,0 2.968,-2.576 1.848,-3.268 -0.144,-0.089 -0.262,-0.441 -0.262,-0.782 0,-0.34 -0.176,-0.795 -0.392,-1.011 -0.733,-0.734 0.173,-1.737 1.569,-1.737 0.503,0 0.915,-0.118 0.915,-0.261 0,-0.144 0.47,-0.262 1.046,-0.262 0.575,0 1.045,-0.117 1.045,-0.261 0,-0.144 0.412,-0.262 0.915,-0.262 0.639,0 0.915,-0.118 0.915,-0.392 0,-0.305 0.349,-0.392 1.569,-0.392 1.489,0 1.569,0.033 1.569,0.638 0,0.351 0.117,0.711 0.261,0.8 0.144,0.089 0.262,0.544 0.262,1.011 0,0.467 0.172,1.078 0.383,1.357 0.211,0.279 0.388,0.766 0.393,1.081 0.004,0.315 0.125,0.645 0.269,0.734 0.144,0.089 0.262,0.671 0.262,1.295 0,0.766 0.127,1.181 0.392,1.283 1.217,0.467 0.168,2.52 -1.289,2.52 -0.513,0 -0.933,0.118 -0.933,0.261 0,0.144 -0.412,0.262 -0.915,0.262 -0.504,0 -0.915,0.118 -0.915,0.261 0,0.144 -0.475,0.262 -1.054,0.262 -0.696,0 -1.105,0.133 -1.205,0.392 -0.093,0.242 -0.49,0.392 -1.037,0.392 -0.488,0 -0.887,0.118 -0.887,0.262 0,0.143 -0.295,0.261 -0.654,0.261 -0.36,0 -0.654,0.118 -0.654,0.261 0,0.144 -0.218,0.262 -0.486,0.262 -0.267,0 -0.707,0.294 -0.977,0.653 -0.27,0.36 -0.619,0.654 -0.777,0.654 -0.157,0 -0.443,0.294 -0.635,0.654 -0.193,0.359 -0.448,0.653 -0.567,0.653 -0.12,0 -0.218,0.412 -0.218,0.915 0,0.639 -0.118,0.915 -0.392,0.915 -0.322,0 -0.392,0.466 -0.392,2.623 0,2.09 0.08,2.653 0.392,2.773 0.266,0.102 0.392,0.519 0.392,1.299 0,0.632 0.118,1.148 0.262,1.148 0.143,0 0.261,0.412 0.261,0.915 0,0.504 0.118,0.915 0.262,0.915 0.143,0 0.261,0.463 0.261,1.028 0,0.564 0.176,1.203 0.392,1.419 0.216,0.215 0.392,0.753 0.392,1.195 0,0.442 0.118,0.803 0.262,0.803 0.144,0 0.261,0.405 0.261,0.9 0,0.494 0.118,0.972 0.262,1.061 0.143,0.089 0.261,0.485 0.261,0.88 0,0.396 0.173,0.947 0.384,1.227 0.211,0.279 0.387,0.831 0.392,1.226 0.005,0.395 0.126,0.719 0.27,0.719 0.144,0 0.261,0.533 0.261,1.185 0,0.812 0.124,1.232 0.392,1.335 0.216,0.083 0.393,0.264 0.393,0.402 0,0.437 0.725,1 1.288,1 0.298,0 0.542,0.117 0.542,0.261 0,0.144 0.647,0.261 1.438,0.261 0.79,0 1.437,-0.117 1.437,-0.261 0,-0.144 0.412,-0.261 0.915,-0.261 0.504,0 0.916,-0.118 0.916,-0.262 0,-0.144 0.33,-0.261 0.734,-0.261 0.404,0 0.963,-0.173 1.242,-0.384 0.279,-0.211 0.948,-0.388 1.488,-0.392 0.539,-0.005 0.98,-0.126 0.98,-0.27 0,-0.144 0.412,-0.261 0.915,-0.261 0.639,0 0.915,-0.119 0.915,-0.393 0,-0.29 0.305,-0.392 1.176,-0.392 0.648,0 1.177,-0.117 1.177,-0.261 0,-0.144 0.412,-0.262 0.915,-0.262 0.503,0 0.915,-0.117 0.915,-0.261 0,-0.144 0.456,-0.262 1.014,-0.262 0.582,0 1.152,-0.167 1.339,-0.392 0.179,-0.215 0.697,-0.392 1.151,-0.392 0.525,0 0.962,-0.19 1.202,-0.523 0.207,-0.287 0.527,-0.523 0.711,-0.523 0.184,0 0.335,-0.176 0.335,-0.392 0,-0.215 0.117,-0.392 0.261,-0.392 0.153,0 0.262,-0.871 0.262,-2.091 0,-1.22 -0.109,-2.092 -0.262,-2.092 -0.144,0 -0.261,-0.286 -0.261,-0.635 0,-0.349 -0.177,-0.811 -0.392,-1.027 -0.221,-0.22 -0.393,-0.859 -0.393,-1.457 0,-0.585 -0.117,-1.064 -0.261,-1.064 -0.144,0 -0.262,-0.271 -0.262,-0.601 0,-0.819 -0.58,-2.009 -0.98,-2.011 -0.18,-0.001 -0.327,-0.12 -0.327,-0.264 0,-0.144 -0.529,-0.261 -1.176,-0.261 -0.647,0 -1.177,0.117 -1.177,0.261 0,0.144 -0.411,0.262 -0.915,0.262 -0.503,0 -0.915,0.117 -0.915,0.261 0,0.144 -0.294,0.262 -0.653,0.262 -0.407,0 -0.654,0.148 -0.654,0.392 0,0.215 -0.118,0.392 -0.261,0.392 -0.144,0 -0.262,0.647 -0.262,1.438 0,0.791 0.118,1.438 0.262,1.438 0.143,0 0.261,0.411 0.261,0.915 0,0.503 0.126,0.915 0.28,0.915 0.159,0 0.126,0.141 -0.075,0.327 -0.675,0.62 -1.507,0.98 -2.265,0.98 -0.434,0 -0.824,0.168 -0.91,0.392 -0.095,0.246 -0.495,0.392 -1.074,0.392 -0.646,0 -0.923,-0.117 -0.923,-0.392 0,-0.216 -0.118,-0.392 -0.262,-0.392 -0.143,0 -0.265,-0.441 -0.269,-0.98 -0.005,-0.54 -0.181,-1.209 -0.393,-1.488 -0.211,-0.279 -0.383,-0.779 -0.383,-1.111 0,-0.332 -0.118,-0.604 -0.262,-0.604 -0.144,0 -0.261,-0.405 -0.261,-0.9 0,-0.494 -0.118,-0.972 -0.262,-1.061 -0.144,-0.089 -0.261,-0.629 -0.261,-1.2 0,-0.682 -0.135,-1.09 -0.392,-1.189 -0.221,-0.085 -0.392,-0.474 -0.392,-0.891 0,-0.408 -0.118,-0.814 -0.262,-0.903 -0.144,-0.089 -0.261,-0.684 -0.261,-1.322 0,-0.652 -0.123,-1.162 -0.28,-1.162 -0.155,0 -0.104,-0.176 0.112,-0.392 0.215,-0.215 0.635,-0.392 0.933,-0.392 0.298,0 0.542,-0.117 0.542,-0.261 0,-0.144 0.403,-0.262 0.896,-0.262 0.493,0 1.073,-0.176 1.289,-0.392 0.215,-0.216 0.753,-0.392 1.195,-0.392 0.441,0 0.803,-0.118 0.803,-0.261 0,-0.144 0.176,-0.262 0.392,-0.262 0.216,0 0.392,-0.118 0.392,-0.261 0,-0.144 0.147,-0.264 0.327,-0.266 0.399,-0.006 1.503,-1.134 1.503,-1.536 0,-0.159 0.118,-0.29 0.262,-0.29 0.143,0 0.261,-0.176 0.261,-0.392 0,-0.216 0.118,-0.392 0.262,-0.392 0.143,0 0.261,-0.294 0.261,-0.654 0,-0.406 0.148,-0.653 0.392,-0.653 0.324,0 0.392,-0.481 0.392,-2.754 0,-2.206 -0.078,-2.783 -0.392,-2.903 -0.221,-0.085 -0.392,-0.474 -0.392,-0.892 0,-0.407 -0.118,-0.813 -0.261,-0.902 -0.144,-0.089 -0.262,-0.619 -0.262,-1.177 0,-0.558 -0.118,-1.087 -0.261,-1.176 -0.144,-0.089 -0.262,-0.508 -0.262,-0.931 0,-0.509 -0.132,-0.769 -0.392,-0.769 -0.288,0 -0.392,-0.299 -0.392,-1.127 0,-0.62 -0.235,-1.614 -0.523,-2.21 -0.288,-0.595 -0.523,-1.205 -0.523,-1.356 0,-0.151 -0.126,-0.274 -0.28,-0.274 -0.305,0 -1.027,-0.644 -1.027,-0.915 0,-0.271 -0.722,-0.915 -1.027,-0.915 -0.154,0 -0.28,-0.095 -0.28,-0.211 0,-0.869 -7.209,-1.65 -7.713,-0.835 m 33.185,22.353 c 0.534,0.503 1.138,0.915 1.344,0.915 0.205,0 0.373,0.118 0.373,0.262 0,0.143 0.126,0.261 0.28,0.261 0.315,0 1.028,0.647 1.028,0.933 0,0.295 0.874,0.88 1.328,0.889 0.227,0.004 0.571,0.302 0.763,0.662 0.192,0.359 0.477,0.654 0.632,0.655 0.386,0.003 0.937,1.251 0.937,2.12 0,0.391 0.138,0.757 0.307,0.813 0.454,0.151 0.004,0.725 -0.569,0.725 -0.27,0 -0.558,0.108 -0.639,0.239 -0.081,0.131 -0.618,0.318 -1.192,0.415 -0.575,0.097 -1.045,0.284 -1.045,0.415 0,0.131 -0.382,0.238 -0.849,0.237 -0.949,-0.003 -1.504,-0.796 -1.504,-2.15 0,-0.417 -0.171,-0.806 -0.392,-0.891 -0.242,-0.093 -0.392,-0.49 -0.392,-1.038 0,-0.487 -0.118,-0.887 -0.261,-0.887 -0.144,0 -0.262,-0.529 -0.262,-1.176 0,-0.647 -0.117,-1.177 -0.261,-1.177 -0.144,0 -0.262,-0.399 -0.262,-0.887 0,-0.547 -0.15,-0.944 -0.392,-1.037 -0.411,-0.158 -0.556,-1.213 -0.167,-1.213 0.124,0 0.661,0.412 1.195,0.915 m -53.708,52.295 c 0,0.246 0.717,0.908 0.983,0.908 0.13,0 0.394,0.294 0.586,0.653 0.192,0.36 0.483,0.654 0.647,0.654 0.163,0 0.695,0.412 1.183,0.915 0.488,0.503 1.04,0.915 1.228,0.915 0.187,0 0.341,0.123 0.341,0.273 0,0.355 1.202,1.557 1.557,1.557 0.15,0 0.273,0.126 0.273,0.28 0,0.154 0.168,0.448 0.373,0.654 0.206,0.205 0.5,0.373 0.654,0.373 0.154,0 0.28,0.118 0.28,0.262 0,0.144 0.235,0.261 0.523,0.261 0.29,0 0.523,0.174 0.523,0.392 0,0.216 0.117,0.392 0.261,0.392 0.144,0 0.262,0.177 0.262,0.393 0,0.215 -0.118,0.392 -0.262,0.392 -0.144,0 -0.261,0.235 -0.261,0.523 0,0.287 -0.118,0.523 -0.262,0.523 -0.143,0 -0.261,0.294 -0.261,0.653 0,0.407 -0.148,0.654 -0.392,0.654 -0.216,0 -0.395,0.206 -0.398,0.457 -0.003,0.252 -0.236,0.752 -0.517,1.111 -0.281,0.36 -0.514,0.86 -0.517,1.111 -0.004,0.252 -0.115,0.458 -0.248,0.458 -0.279,0 -1.065,1.477 -1.065,2.001 0,0.194 -0.118,0.352 -0.262,0.352 -0.144,0 -0.261,0.294 -0.261,0.654 0,0.359 -0.148,0.653 -0.329,0.653 -0.18,0 -0.496,0.382 -0.702,0.85 -0.206,0.467 -0.529,1.005 -0.718,1.195 -0.188,0.19 -0.343,0.513 -0.343,0.719 0,0.205 -0.117,0.373 -0.261,0.373 -0.144,0 -0.262,0.236 -0.262,0.523 0,0.288 -0.117,0.523 -0.261,0.523 -0.144,0 -0.261,0.294 -0.261,0.654 0,0.406 -0.149,0.653 -0.393,0.653 -0.215,0 -0.392,0.118 -0.392,0.262 0,0.144 -0.109,0.261 -0.242,0.261 -0.235,0 -0.303,-0.702 -0.731,-7.56 -0.139,-2.212 -0.307,-3.281 -0.53,-3.355 -0.224,-0.074 -0.327,-0.745 -0.327,-2.126 0,-1.11 -0.11,-2.129 -0.245,-2.266 -0.135,-0.137 -0.306,-1.484 -0.38,-2.993 -0.075,-1.51 -0.21,-3.48 -0.301,-4.377 -0.111,-1.087 -0.055,-1.882 0.167,-2.382 l 0.332,-0.751 0.606,0.606 c 0.333,0.333 0.605,0.678 0.605,0.767"
           id="path930"
           inkscape:connector-curvature="0"
           style="fill:#000000;fill-rule:evenodd;stroke:none" />
      </g>
    </clipPath>
  </defs>
  <sodipodi:namedview
     id="base"
     pagecolor="#ffffff"
     bordercolor="#666666"
     borderopacity="1.0"
     inkscape:pageopacity="0.0"
     inkscape:pageshadow="2"
     inkscape:zoom="0.21220109"
     inkscape:cx="1579.3739"
     inkscape:cy="981.48888"
     inkscape:document-units="mm"
     inkscape:current-layer="layer1"
     showgrid="false"
     inkscape:window-width="1920"
     inkscape:window-height="1051"
     inkscape:window-x="-9"
     inkscape:window-y="-9"
     inkscape:window-maximized="1"
     fit-margin-top="0"
     fit-margin-left="0"
     fit-margin-right="0"
     fit-margin-bottom="0" />
  <metadata
     id="metadata5">
    <rdf:RDF>
      <cc:Work
         rdf:about="">
        <dc:format>image/svg+xml</dc:format>
        <dc:type
           rdf:resource="http://purl.org/dc/dcmitype/StillImage" />
        <dc:title></dc:title>
      </cc:Work>
    </rdf:RDF>
  </metadata>
  <g
     inkscape:label="Layer 1"
     inkscape:groupmode="layer"
     id="layer1"
     transform="translate(849.63891,38.934787)">
    <rect
       style="opacity:1;fill:#275a9b;fill-opacity:1;stroke:none;stroke-width:0.76499999;stroke-linecap:butt;stroke-linejoin:round;stroke-miterlimit:4;stroke-dasharray:none;stroke-opacity:1"
       id="rect852"
       width="675.79376"
       height="839.13135"
       x="-896.92688"
       y="-81.553757"
       clip-path="url(#clipPath928)" />
  </g>
</svg>
